<svg width="1920" height="900" viewBox="0 0 1920 900" fill="none" xmlns="http://www.w3.org/2000/svg"><mask id="a" style="mask-type:alpha" maskUnits="userSpaceOnUse" x="0" y="0" width="1920" height="900"><path fill="#D9D9D9" d="M0 0h1920v900H0z"/></mask><g mask="url(#a)"><rect x="1539" y="350" width="147" height="60" rx="30" fill="#4D42CB"/><path d="M1586.37 377.873h-2.83v-8.227h-2.14v20.304h2.14v-10.187h2.83v11.309h2.2v-21.875h-2.2v8.676zm-13.5-4.161h5.86v-1.882h-8.18v13.985h1.45c3.19-.018 5.45-.095 8.09-.639l-.19-1.917c-2.33.449-4.35.57-7.03.596v-10.143zm26.25-1.943v-2.564h-2.31v2.564h-5.37v1.865h13.02v-1.865h-5.34zm9.49-2.555h-2.33v16.376h2.33v-7.407h3.16v-1.933h-3.16v-7.036zm-5.35 9.617c-.01-2.512-2.16-4.144-5.3-4.144-3.18 0-5.33 1.632-5.32 4.144-.01 2.469 2.14 4.083 5.32 4.083 3.14 0 5.29-1.614 5.3-4.083zm-8.39 0c-.02-1.45 1.23-2.348 3.09-2.348 1.85 0 3.09.898 3.11 2.348-.02 1.416-1.26 2.287-3.11 2.279-1.86.008-3.11-.863-3.09-2.279zm-.13 5.456v6.336h14.8v-1.899h-12.49v-4.437h-2.31zm34.11-15.073v15.677h2.32v-15.677h-2.32zm-14.69 1.847v10.282h10.41v-10.282h-10.41zm2.27 8.417v-6.552h5.85v6.552h-5.85zm2.76 3.911h-2.33v7.027h14.95v-1.891h-12.62v-5.136zm35.46-5.447h-3.05c.51-2.538.51-4.463.51-6.086v-1.632h-14.98v1.873h12.68c0 1.572-.03 3.393-.54 5.845h-14.64v1.882h8.81v3.729h-6.76v1.864h13.2v5.655h2.33v-7.519h-6.46v-3.729h8.9v-1.882z" fill="#fff"/></g></svg>