<svg width="95" height="44" viewBox="0 0 95 44" fill="none" xmlns="http://www.w3.org/2000/svg"><path d="M93.204 32.199h-34.1v.768h34.1V32.2z" fill="#E61D1C"/><path d="M53.836 1.486L49.74 18.015 45.35 1.339H31.89l-.146 5.127S27.21.757 16.534.024c0 0-10.39-.733-14.334 5.86 0 0-4.683 6.432 2.189 11.555 0 0 4.536 2.77 14.78 3.645 0 0 4.525.885 4.525 2.64 0 0 .445 3.22-6.426 3.66 0 0-6.736.729-7.464-5.268H0s0 4.535 3.514 8.044c0 0 2.63 2.776 10.973 3.666 0 0 7.756.142 9.94-.89 0 0 4.248-.576 7.17-4.237v4.389h8.627V12.746l5.855 20.185h7.165l5.85-21.06v21.06h8.485V1.481H53.825l.01.005zm-22.385 16.1s-2.336-2.934-9.501-3.813c0 0-6.144-.44-7.16-1.022 0 0-4.54-.586-4.54-2.927 0 0 .59-2.923 6.143-2.63 0 0 6.29.44 6.148 4.536h8.915v5.855h-.005zM71.806 2.547h1.113c1.021 0 1.238.612 1.238.986 0 .683-.45.865-.773.966l.945 1.673h-.596l-.855-1.612h-.561v1.612h-.51v-3.63.005zm.506.43v1.198c.278.005.637.005.824-.035.197-.046.51-.147.51-.556 0-.425-.298-.607-.839-.607h-.5.005z" fill="#E61D1C"/><path d="M69.879 4.378a3.056 3.056 0 013.064-3.049 3.05 3.05 0 013.054 3.05 3.06 3.06 0 11-6.118 0zm.334 0a2.73 2.73 0 002.725 2.726 2.723 2.723 0 000-5.446 2.722 2.722 0 00-2.725 2.72z" fill="#E61D1C"/><path d="M18.976 37.993h-1.73v-.531c0-.248-.02-.405-.065-.476-.046-.065-.116-.1-.223-.1a.278.278 0 00-.252.136c-.056.09-.086.232-.086.414 0 .238.03.42.096.541.06.122.237.268.525.44.83.49 1.35.895 1.568 1.214.217.318.324.824.324 1.527 0 .51-.061.885-.177 1.127-.117.243-.35.446-.693.607a2.763 2.763 0 01-1.193.248c-.501 0-.926-.096-1.275-.283-.354-.187-.581-.43-.692-.723-.112-.294-.162-.708-.162-1.244v-.47h1.73v.87c0 .267.024.44.07.515.05.076.137.116.258.116s.217-.05.278-.146c.06-.096.09-.243.09-.435 0-.42-.055-.698-.171-.83-.116-.13-.41-.348-.87-.652-.465-.308-.768-.53-.92-.667-.152-.137-.273-.329-.374-.576-.101-.243-.147-.557-.147-.94 0-.547.071-.951.213-1.204.141-.253.364-.45.677-.597.314-.142.693-.212 1.133-.212.485 0 .895.075 1.239.232.338.157.566.354.677.592.111.238.167.642.167 1.208v.283l-.015.016zm4.779-.876v5.87h-1.82l.03-.485a1.246 1.246 0 01-.46.445c-.182.101-.39.147-.627.147-.268 0-.49-.046-.667-.142a.9.9 0 01-.39-.374 1.326 1.326 0 01-.156-.49 10.62 10.62 0 01-.03-1.011v-3.96h1.79v3.995c0 .455.014.728.04.814.03.086.106.126.227.126.132 0 .213-.045.238-.131.025-.086.035-.374.035-.855v-3.954h1.79v.005zm2.432.001l-.07.774c.258-.551.637-.844 1.127-.88v2.068c-.328 0-.566.046-.723.132a.57.57 0 00-.283.369c-.035.157-.05.52-.05 1.092v2.32h-1.79v-5.87h1.79v-.005zm3.898-1.295v.905c-.369 0-.586.016-.652.051-.066.035-.101.131-.101.288v.187h.753v.93h-.425v4.804h-1.79v-4.803h-.369v-.93h.37c0-.385.015-.643.04-.774a.643.643 0 01.197-.35c.106-.1.253-.176.44-.232.187-.05.48-.08.88-.08h.657v.004zm1.936 3.571h-1.678v-.395c0-.455.05-.804.156-1.051.106-.248.314-.465.632-.653.314-.187.728-.283 1.229-.283.607 0 1.062.106 1.365.319.309.212.49.475.551.789.061.313.091.95.091 1.921v2.948h-1.74v-.521c-.11.212-.247.37-.424.47a1.156 1.156 0 01-.617.157c-.313 0-.601-.086-.86-.263-.262-.177-.389-.561-.389-1.153v-.48c0-.44.071-.738.208-.9.136-.157.48-.344 1.031-.556.587-.233.9-.385.94-.465.041-.081.061-.243.061-.486 0-.308-.025-.506-.07-.602a.24.24 0 00-.228-.141c-.121 0-.197.04-.228.116-.03.076-.045.283-.045.607v.617l.015.005zm.566.804c-.288.207-.45.384-.5.526-.046.141-.07.343-.07.611 0 .304.02.501.06.587.04.091.121.131.238.131.116 0 .187-.035.217-.106.035-.07.05-.253.05-.546v-1.208l.005.005zm6.356-.865h-1.684v-.677c0-.238-.02-.395-.055-.48-.036-.087-.112-.127-.213-.127-.1 0-.172.035-.207.111s-.056.238-.056.496v2.77c0 .208.026.37.081.47.05.107.132.157.233.157a.248.248 0 00.247-.161c.041-.112.066-.314.066-.622v-.698h1.593c0 .47-.02.819-.05 1.057a1.71 1.71 0 01-.299.723 1.58 1.58 0 01-.652.556c-.268.126-.602.187-.996.187-.506 0-.905-.086-1.199-.258a1.424 1.424 0 01-.627-.728c-.121-.313-.182-.753-.182-1.325v-1.668c0-.5.05-.875.152-1.128.101-.253.313-.48.642-.678.329-.197.728-.298 1.194-.298.465 0 .864.101 1.193.298.328.198.551.445.657.749.111.303.162.728.162 1.28v-.006zm4.581.824h-2.316v1.27c0 .262.02.434.056.515.04.076.11.117.222.117.137 0 .228-.051.273-.152.046-.101.071-.298.071-.592v-.773h1.694v.434c0 .364-.02.643-.07.835a1.657 1.657 0 01-.32.622 1.5 1.5 0 01-.636.495c-.258.111-.582.167-.971.167-.39 0-.713-.056-1.002-.162-.288-.111-.515-.258-.672-.45a1.607 1.607 0 01-.334-.627c-.06-.227-.09-.561-.09-.996v-1.714c0-.516.07-.92.206-1.214a1.42 1.42 0 01.683-.682 2.42 2.42 0 011.087-.238c.5 0 .916.096 1.24.283.328.192.555.445.687.759.131.313.197.758.197 1.325v.778h-.005zm-1.79-.955v-.43c0-.304-.015-.5-.05-.587-.031-.09-.102-.131-.198-.131-.126 0-.202.035-.232.111s-.046.278-.046.607v.43h.526zm9.769-3.379v7.165h-1.628V38.15l-.652 4.84H48.07l-.683-4.728v4.727H45.76v-7.165h2.412c.071.43.147.94.223 1.522l.263 1.82.43-3.347h2.421l-.005.005zm2.295 3.571h-1.679v-.395c0-.455.05-.804.157-1.051.106-.248.314-.465.632-.653.314-.187.728-.283 1.229-.283.607 0 1.062.106 1.365.319.308.212.49.475.551.789.06.313.091.95.091 1.921v2.948h-1.74v-.521c-.11.212-.247.37-.424.47-.172.106-.38.157-.617.157a1.49 1.49 0 01-.86-.263c-.262-.177-.389-.561-.389-1.153v-.48c0-.44.071-.738.208-.9.136-.157.48-.344 1.031-.556.587-.233.9-.385.94-.465.041-.081.061-.243.061-.486 0-.308-.025-.506-.07-.602a.24.24 0 00-.228-.141c-.121 0-.197.04-.228.116-.03.076-.045.283-.045.607v.617l.015.005zm.566.804c-.288.207-.45.384-.5.526a2.056 2.056 0 00-.071.611c0 .304.02.501.06.587.041.091.122.131.238.131.117 0 .187-.035.218-.106.035-.07.05-.253.05-.546v-1.208l.005.005zm4.225-3.08l-.03.541c.13-.217.287-.379.474-.485a1.3 1.3 0 01.648-.162c.308 0 .556.071.753.218a.985.985 0 01.374.546c.056.217.086.586.086 1.097v4.116h-1.79v-4.066c0-.404-.015-.652-.04-.738-.025-.09-.101-.131-.223-.131-.126 0-.207.05-.237.151-.03.102-.05.375-.05.815v3.969h-1.79v-5.87h1.825zm4.515 2.276h-1.679v-.395c0-.455.05-.804.157-1.051.106-.248.313-.465.632-.653.313-.187.728-.283 1.229-.283.606 0 1.061.106 1.365.319.308.212.49.475.55.789.061.313.092.95.092 1.921v2.948h-1.74v-.521c-.11.212-.247.37-.424.47-.172.106-.38.157-.617.157-.314 0-.602-.086-.86-.263-.263-.177-.39-.561-.39-1.153v-.48c0-.44.072-.738.208-.9.137-.157.48-.344 1.032-.556.586-.233.9-.385.94-.465.04-.081.06-.243.06-.486 0-.308-.024-.506-.07-.602a.24.24 0 00-.227-.141c-.122 0-.198.04-.228.116-.03.076-.045.283-.045.607v.617l.015.005zm.566.804c-.288.207-.45.384-.5.526a2.056 2.056 0 00-.071.611c0 .304.02.501.06.587.04.091.122.131.238.131.116 0 .187-.035.217-.106.036-.07.051-.253.051-.546v-1.208l.005.005zm6.467-3.08v4.52c0 .613-.015 1.007-.04 1.184-.026.177-.127.369-.3.566a1.64 1.64 0 01-.712.455c-.303.106-.688.157-1.153.157-.571 0-1.026-.096-1.37-.288-.344-.192-.526-.572-.536-1.138h1.734c0 .258.096.39.283.39.137 0 .228-.041.268-.122.04-.08.066-.248.066-.5v-.445a1.694 1.694 0 01-.485.313c-.172.07-.35.106-.531.106-.324 0-.587-.066-.794-.197a.99.99 0 01-.425-.51c-.076-.213-.116-.511-.116-.9v-2.135c0-.556.101-.96.298-1.203.197-.243.506-.369.915-.369.223 0 .43.045.612.136.187.092.35.228.496.415l.126-.445h1.664v.01zm-1.79 1.558c0-.268-.015-.44-.046-.516-.03-.076-.1-.111-.207-.111-.106 0-.177.04-.218.126-.04.086-.065.248-.065.496v1.972c0 .263.015.434.05.51.03.076.102.117.203.117.116 0 .192-.046.232-.142.036-.096.056-.309.056-.642v-1.82l-.005.01zm6.477 1.481h-2.316v1.27c0 .262.02.434.056.515.04.076.11.117.222.117.136 0 .227-.051.273-.152.046-.101.07-.298.07-.592v-.773h1.695v.434c0 .364-.02.643-.071.835a1.657 1.657 0 01-.319.622 1.5 1.5 0 01-.637.495c-.258.111-.581.167-.97.167-.39 0-.713-.056-1.002-.162-.288-.111-.516-.258-.672-.45a1.607 1.607 0 01-.334-.627c-.06-.227-.091-.561-.091-.996v-1.714c0-.516.07-.92.207-1.214a1.42 1.42 0 01.683-.682 2.42 2.42 0 011.087-.238c.5 0 .915.096 1.239.283.329.192.556.445.688.759.131.313.197.758.197 1.325v.778h-.005zm-1.79-.955v-.43c0-.304-.015-.5-.05-.587-.031-.09-.102-.131-.198-.131-.126 0-.202.035-.233.111-.03.076-.045.278-.045.607v.43h.526zm4.136-2.084l-.03.556a1.42 1.42 0 01.495-.5 1.28 1.28 0 01.652-.167c.48 0 .855.223 1.128.662a1.6 1.6 0 01.51-.5c.188-.111.4-.167.628-.167.303 0 .556.076.753.222a.984.984 0 01.384.542c.056.212.086.56.086 1.041v4.172h-1.734V39.15c0-.5-.015-.814-.05-.93-.036-.117-.112-.177-.238-.177-.127 0-.208.06-.248.177-.035.116-.056.43-.056.935v3.828h-1.734v-3.732c0-.576-.015-.92-.04-1.037-.026-.116-.107-.171-.233-.171-.08 0-.147.03-.202.09a.353.353 0 00-.091.223c-.005.086-.01.273-.01.556v4.07h-1.735v-5.87h1.765v.005zm9.273 3.039h-2.316v1.27c0 .262.02.434.056.515.04.076.111.117.223.117.136 0 .227-.051.273-.152.045-.101.07-.298.07-.592v-.773h1.694v.434c0 .364-.02.643-.07.835a1.658 1.658 0 01-.319.622c-.167.222-.38.389-.637.495-.258.111-.582.167-.97.167-.39 0-.714-.056-1.002-.162-.288-.111-.516-.258-.673-.45a1.606 1.606 0 01-.333-.627c-.061-.227-.091-.561-.091-.996v-1.714c0-.516.07-.92.207-1.214a1.42 1.42 0 01.683-.682 2.42 2.42 0 011.087-.238c.5 0 .915.096 1.239.283.328.192.556.445.687.759.132.313.197.758.197 1.325v.778h-.005zm-1.79-.955v-.43c0-.304-.015-.5-.05-.587-.03-.09-.101-.131-.197-.131-.127 0-.203.035-.233.111s-.046.278-.046.607v.43h.526zm4.193-2.084l-.03.541c.132-.217.288-.379.475-.485.187-.106.405-.162.648-.162.308 0 .556.071.753.218a.985.985 0 01.374.546c.056.217.086.586.086 1.097v4.116h-1.79v-4.066c0-.404-.015-.652-.04-.738-.026-.09-.102-.131-.223-.131-.126 0-.207.05-.237.151-.03.102-.051.375-.051.815v3.969h-1.79v-5.87h1.825zm4.807-.784v.925h.48v.93h-.48v3.14c0 .385.02.602.06.648.041.045.208.066.496.066v.945h-.723c-.404 0-.698-.015-.87-.05a.951.951 0 01-.46-.233.772.772 0 01-.248-.42c-.03-.156-.05-.53-.05-1.112V38.19h-.384v-.93h.384v-.926h1.795z" fill="#C9CACA"/></svg>