<svg width="337" height="350" viewBox="0 0 337 350" fill="none" xmlns="http://www.w3.org/2000/svg"><mask id="a" style="mask-type:alpha" maskUnits="userSpaceOnUse" x="0" y="0" width="337" height="350"><path fill="#D9D9D9" d="M0 0h337v350H0z"/></mask><g mask="url(#a)"><circle cx="170" cy="164" r="131.5" stroke="#D6D6E3" stroke-dasharray="3 3"/><circle cx="170" cy="164" r="146.5" stroke="#D6D6E3"/><circle cx="169.5" cy="31.5" r="41.5" fill="#fff"/><path d="M164.401 15.529v-4.584h-2.163a8.625 8.625 0 00-.711-1.729l1.531-1.531-3.24-3.24-1.532 1.53a8.269 8.269 0 00-1.728-.71V3.1h-4.584v2.164a8.575 8.575 0 00-1.729.71l-1.531-1.53-3.241 3.24 1.532 1.531a8.241 8.241 0 00-.712 1.729h-2.163v4.584h2.163a8.6 8.6 0 00.712 1.729l-1.532 1.53 3.241 3.241 1.531-1.531a8.256 8.256 0 001.729.711v2.163h4.584V21.21a8.588 8.588 0 001.728-.711l1.532 1.531 3.24-3.24-1.531-1.532a8.29 8.29 0 00.711-1.728h2.163z" stroke="#6D6D7E" stroke-width="1.5" stroke-linecap="round" stroke-linejoin="round"/><path d="M154.255 18.551a5.315 5.315 0 10.001-10.629 5.315 5.315 0 00-.001 10.63z" stroke="#6D6D7E" stroke-width="1.5" stroke-linecap="round" stroke-linejoin="round"/><path d="M196.518 49.927h-43.882a5.608 5.608 0 01-5.612-5.611v-7.123a5.608 5.608 0 015.612-5.611h38.28a5.608 5.608 0 005.612-5.611v-7.123a5.608 5.608 0 00-5.612-5.611h-26.09" stroke="#E82324" stroke-width="1.5" stroke-linecap="round" stroke-linejoin="round"/><path d="M189.158 58.768a8.842 8.842 0 100-17.684 8.842 8.842 0 000 17.684zm-1.66-48.712h-15.135v6.371h15.135v-6.371zm-8.16 18.335h-15.135v6.372h15.135v-6.372zm-9.059 18.345h-15.134v6.372h15.134v-6.372z" fill="#fff" stroke="#6D6D7E" stroke-width="1.5" stroke-linecap="round" stroke-linejoin="round"/><path d="M184.899 49.423l3.172 3.171 5.354-5.344" fill="#fff"/><path d="M184.899 49.423l3.172 3.171 5.354-5.344" stroke="#6D6D7E" stroke-width="1.5" stroke-linecap="round" stroke-linejoin="round"/><circle cx="305" cy="170" r="33" fill="#fff"/><circle cx="292.5" cy="108.5" r="45.5" fill="#fff"/><path d="M276.37 83.33c.71-1.23 2.49-1.23 3.2 0l3.54 6.12 3.54 6.12c.71 1.23-.18 2.77-1.6 2.77h-14.14c-1.42 0-2.31-1.54-1.6-2.77l3.54-6.12 3.54-6.12h-.02z" stroke="#6D6D7E" stroke-width="1.5" stroke-linecap="round" stroke-linejoin="round"/><path d="M277.301 93.15l-.17-4.7c-.02-.47.36-.86.83-.86s.85.39.83.86l-.17 4.7c-.01.36-.31.64-.66.64-.36 0-.65-.28-.66-.64zm.669 2.49a.6.6 0 100-1.2.6.6 0 000 1.2z" fill="#6D6D7E"/><path d="M279.31 121.1c.77-1.33 2.69-1.33 3.46 0l3.83 6.63 3.83 6.63c.77 1.33-.19 3-1.73 3h-15.31c-1.54 0-2.5-1.67-1.73-3l3.83-6.63 3.83-6.63h-.01z" stroke="#6D6D7E" stroke-width="1.5" stroke-linecap="round" stroke-linejoin="round"/><path d="M280.331 131.74l-.18-5.09c-.02-.51.39-.94.9-.94a.9.9 0 01.9.94l-.18 5.09a.71.71 0 01-.72.69c-.39 0-.71-.31-.72-.69zm.711 2.69a.65.65 0 100-1.3.65.65 0 000 1.3z" fill="#6D6D7E"/><path d="M306.9 89.77c1.19-2.05 4.15-2.05 5.34 0l5.9 10.22 5.9 10.22c1.19 2.05-.3 4.62-2.67 4.62h-23.6c-2.37 0-3.86-2.57-2.67-4.62l5.9-10.22 5.9-10.22z" stroke="#6D6D7E" stroke-width="1.5" stroke-linecap="round" stroke-linejoin="round"/><path d="M308.46 106.15l-.28-7.84c-.03-.79.6-1.44 1.39-1.44.79 0 1.42.65 1.39 1.44l-.28 7.84c-.02.6-.51 1.07-1.11 1.07-.6 0-1.09-.47-1.11-1.07zm1.11 4.16a1.01 1.01 0 100-2.02 1.01 1.01 0 000 2.02z" fill="#6D6D7E"/><path d="M293.81 89.1c.61-.78 1.76-.78 2.37 0 3.92 5.02 9.96 8 16.4 8v12.23c0 10.62-6.63 20.12-16.6 23.78l-.99.36-.99-.36a25.337 25.337 0 01-16.6-23.78V97.1c6.44 0 12.48-2.98 16.4-8h.01z" fill="#fff" stroke="#6D6D7E" stroke-width="1.5" stroke-linecap="round" stroke-linejoin="round"/><path d="M295 128.88c-8.08-2.99-13.5-10.78-13.5-19.4v-8.72c4.73-.59 9.09-2.69 12.48-5.95.57-.55 1.47-.55 2.04 0 3.4 3.26 7.76 5.35 12.48 5.95v8.72c0 8.62-5.42 16.41-13.5 19.4z" fill="#fff" stroke="#E82324" stroke-width="1.5" stroke-linecap="round" stroke-linejoin="round"/><path d="M289.59 110.84l4.45 4.46 7.51-7.51" stroke="#E82324" stroke-width="1.5" stroke-linecap="round" stroke-linejoin="round"/><circle cx="239.5" cy="266.5" r="39.5" fill="#fff"/><path d="M258.74 280.47l5.93 5.92m-13.42-42.49H220.7v39.88h30.55V243.9z" stroke="#6D6D7E" stroke-width="1.5" stroke-linecap="round" stroke-linejoin="round"/><path d="M255.81 248.06h-30.55v39.88h30.55v-39.88z" fill="#fff" stroke="#6D6D7E" stroke-width="1.5" stroke-linecap="round" stroke-linejoin="round"/><path d="M231.51 255.3h18.05m-18.05 8.41h18.05m-18.05 8.41h18.05m-18.05 8.4h18.05" stroke="#6D6D7E" stroke-width="1.5" stroke-linecap="round" stroke-linejoin="round"/><path d="M249.43 284.33c7.273 0 13.17-5.896 13.17-13.17s-5.897-13.17-13.17-13.17c-7.274 0-13.17 5.896-13.17 13.17s5.896 13.17 13.17 13.17z" fill="#fff" stroke="#E82324" stroke-width="1.5" stroke-linecap="round" stroke-linejoin="round"/><path d="M258.79 271.16c0 .83-.11 1.63-.31 2.39m-5.98-11.24c2.46.85 4.45 2.7 5.49 5.06" stroke="#E82324" stroke-width="1.5" stroke-linecap="round" stroke-linejoin="round"/><path d="M264.403 282.301l-3.826 3.826 7.453 7.453 3.826-3.826-7.453-7.453z" stroke="#6D6D7E" stroke-width="1.5" stroke-miterlimit="10"/><circle cx="94.5" cy="266.5" r="39.5" fill="#fff"/><path d="M92.78 256.22c.99-1.71 3.45-1.71 4.44 0l4.909 8.5 4.91 8.5c.99 1.71-.25 3.84-2.22 3.84h-19.62c-1.97 0-3.21-2.14-2.22-3.84l4.91-8.5 4.91-8.5h-.02z" stroke="#6D6D7E" stroke-width="1.5" stroke-linecap="round" stroke-linejoin="round"/><path d="M94.08 269.85l-.23-6.52c-.02-.66.5-1.2 1.16-1.2.66 0 1.18.54 1.16 1.2l-.23 6.52c-.02.5-.43.89-.92.89-.5 0-.9-.39-.92-.89h-.02zm.92 3.46a.84.84 0 100-1.68.84.84 0 000 1.68z" fill="#6D6D7E"/><path d="M95 288.769c11.47 0 20.769-9.299 20.769-20.769 0-11.471-9.299-20.769-20.77-20.769-11.47 0-20.768 9.298-20.768 20.769 0 11.47 9.298 20.769 20.769 20.769z" stroke="#6D6D7E" stroke-width="1.5" stroke-linecap="round" stroke-linejoin="round"/><path d="M95 292.923c13.764 0 24.922-11.158 24.922-24.923 0-13.765-11.158-24.923-24.923-24.923-13.764 0-24.923 11.158-24.923 24.923 0 13.765 11.159 24.923 24.923 24.923z" stroke="#6D6D7E" stroke-width="1.5" stroke-linecap="round" stroke-linejoin="round"/><path d="M94.999 250.31v-9.9M77.31 268h-9.9m27.589 17.69v9.9m17.69-27.59h9.9" stroke="#E82324" stroke-width="1.5" stroke-linecap="round" stroke-linejoin="round"/><circle cx="33" cy="170" r="33" fill="#fff"/><circle cx="45.5" cy="108.5" r="45.5" fill="#fff"/><path d="M33.643 89.167c0-2.832-2.284-5.128-5.1-5.128-2.818 0-5.102 2.296-5.102 5.128v2.674c0 2.833 2.284 5.129 5.101 5.129s5.1-2.296 5.1-5.129v-2.674zm1.582 31.365H21.859c-2.804 0-5.106-2.302-5.106-5.129v-10.28c0-2.816 2.291-5.128 5.106-5.128h13.366c2.804 0 5.106 2.301 5.106 5.128v7.726" stroke="#6D6D7E" stroke-width="1.5" stroke-linecap="round" stroke-linejoin="round"/><path d="M30.817 114.504H23.91a1.16 1.16 0 01-1.156-1.162v-6.936m-2.75 13.698v20.131m17.076-20.131v20.131m-8.533-11.342v11.342" stroke="#6D6D7E" stroke-width="1.5" stroke-linecap="round" stroke-linejoin="round"/><path d="M45.764 105.408H33.228a2.64 2.64 0 00-2.554 1.984l-4.658 17.939h15.526l4.931-19.002a.737.737 0 00-.709-.921z" fill="#fff" stroke="#6D6D7E" stroke-width="1.5" stroke-linecap="round" stroke-linejoin="round"/><path d="M33.227 105.408c-1.2 0-2.248.811-2.553 1.984z" fill="#fff"/><path d="M33.227 105.408c-1.2 0-2.248.811-2.553 1.984" stroke="#6D6D7E" stroke-width="1.5" stroke-linecap="round" stroke-linejoin="round"/><path d="M46.712 105.408c1.2 0 2.248.811 2.553 1.984l.371 1.392H36.151l-.371-1.392a2.651 2.651 0 00-2.553-1.984h13.485zm22.706 7.683l-3.928-1.151-1.636 3.759-4.998-10.773 5.554-2.608 5.008 10.773z" fill="#fff" stroke="#6D6D7E" stroke-width="1.5" stroke-linecap="round" stroke-linejoin="round"/><path d="M51.897 113.091l3.916-1.151 1.637 3.759 5.008-10.773-5.564-2.608-4.997 10.773z" fill="#fff" stroke="#6D6D7E" stroke-width="1.5" stroke-linecap="round" stroke-linejoin="round"/><path d="M72.452 96.345l-1.92 1.973a1.91 1.91 0 00-.546 1.337l-.033 2.761a1.938 1.938 0 01-1.91 1.918l-2.749.033c-.501 0-.97.208-1.33.548l-1.965 1.929a1.924 1.924 0 01-2.695 0l-1.964-1.929a1.896 1.896 0 00-1.33-.548l-2.75-.033a1.937 1.937 0 01-1.91-1.918l-.032-2.761c0-.504-.207-.976-.546-1.337l-1.92-1.973a1.945 1.945 0 010-2.707l1.92-1.972c.35-.362.546-.833.546-1.337l.032-2.762a1.937 1.937 0 011.91-1.918l2.75-.032c.501 0 .97-.209 1.33-.548l1.964-1.93a1.924 1.924 0 012.695 0l1.964 1.93c.36.35.83.547 1.331.547l2.75.033a1.937 1.937 0 011.91 1.918l.032 2.762c0 .504.207.975.545 1.337l1.92 1.972a1.945 1.945 0 010 2.707z" fill="#fff" stroke="#6D6D7E" stroke-width="1.5" stroke-linecap="round" stroke-linejoin="round"/><path d="M60.657 102.406c4.08 0 7.387-3.322 7.387-7.42 0-4.097-3.307-7.418-7.387-7.418s-7.386 3.321-7.386 7.419c0 4.097 3.307 7.419 7.386 7.419z" fill="#fff" stroke="#E82324" stroke-width="1.5" stroke-linecap="round" stroke-linejoin="round"/><path d="M57.416 94.647l2.684 2.696 4.517-4.537" fill="#fff"/><path d="M57.416 94.647l2.684 2.696 4.517-4.537" stroke="#E82324" stroke-width="1.5" stroke-linecap="round" stroke-linejoin="round"/><path d="M155.614 163.121h2.851v-20.507h-2.851v20.507zm-12.485-8.808c2.415-.628 4.051-2.017 4.94-3.804.921 1.699 2.581 3.033 4.972 3.637l1.302-2.216c-3.089-.754-4.622-2.613-4.805-4.59h4.178v-2.295h-4.225v-2.24h-2.859v2.24h-4.194v2.295h4.122c-.182 2.081-1.691 3.995-4.773 4.805l1.342 2.168zm6.362-.643h-2.859v3.208c-1.906.064-3.717.072-5.25.072l.326 2.311c3.581 0 8.434-.04 12.961-.898l-.214-2.112a58.354 58.354 0 01-4.964.5v-3.081zm27.701 2.446c.81-4.353.81-7.228.818-9.785v-1.938h-14.915v2.28h12.04c-.016 2.398-.056 5.273-.834 9.141l2.891.302zm-6.505-4.908h-2.843v7.028h-6.671v2.327h18.647v-2.327h-9.133v-7.028zm24.683-8.594v20.507h2.851v-20.507h-2.851zm-7.712 1.374c-3.216 0-5.678 2.089-5.67 5.02-.008 2.938 2.454 5.019 5.67 5.019 3.256 0 5.663-2.081 5.679-5.019-.016-2.931-2.423-5.02-5.679-5.02zm0 2.478c1.644 0 2.875.945 2.883 2.542-.008 1.62-1.247 2.541-2.883 2.541-1.604 0-2.827-.921-2.827-2.541 0-1.597 1.215-2.542 2.827-2.542zm-6.195 12.469c3.582 0 8.435-.04 12.962-.921l-.215-2.065c-4.376.611-9.427.659-13.072.659l.325 2.327zm-50.987 19.66v2.295h15.066v-2.295h-2.525v-3.106h2.66v-2.303h-15.336v2.303h2.653v3.106h-2.518zm5.377 0v-3.106h4.281v3.106h-4.281zm11.5 3.605h-18.648v2.264h7.871v1.755h-5.71v6.624h14.247v-6.624h-5.686v-1.755h7.926V182.2zm-13.668 8.347v-2.112h8.633v2.112h-8.633zm29.13-17.933v10.5h2.843v-10.5h-2.843zm-7.672 6.529c.922 1.747 2.566 3.121 4.94 3.772l1.358-2.208c-3.137-.818-4.678-2.811-4.876-4.852h4.09v-2.288h-11.238v2.288h4.201c-.206 2.192-1.771 4.336-4.947 5.225l1.302 2.256c2.526-.707 4.241-2.248 5.17-4.193zm-.325 10.245h10.872v-5.456h-13.716v2.168h10.857v1.239h-10.809v5.591h14.224v-2.208h-11.428v-1.334zm34.756-8.705c.588-2.096.588-3.852.588-5.464v-1.675H175.89v2.247h11.397c-.008 1.39-.063 2.772-.524 4.622l2.811.27zm-5.98-2.517h-2.835v3.59h-6.957v2.311h18.56v-2.311h-8.768v-3.59zm-.627 7.187c-4.432.008-7.291 1.422-7.291 3.868 0 2.414 2.859 3.852 7.291 3.844 4.463.008 7.282-1.43 7.298-3.844-.016-2.446-2.835-3.86-7.298-3.868zm0 5.536c-2.812-.008-4.432-.556-4.416-1.668-.016-1.128 1.604-1.731 4.416-1.731 2.811 0 4.447.603 4.455 1.731-.008 1.112-1.644 1.66-4.455 1.668zm26.676-10.261c.484-2.327.484-3.987.484-5.536v-1.644h-14.2v2.295h11.341c-.016 1.374-.071 2.899-.468 4.885h-13.16v2.279h18.695v-2.279h-2.692zm-10.952 5.813v-2.184h-2.819v8.586h14.168v-8.586h-2.835v2.184h-8.514zm0 4.082v-1.898h8.514v1.898h-8.514z" fill="#31313F"/><path d="M139.511 77.698v-.22h2.857v-1.113h-2.842v-1.303h-1.392v1.303h-2.856v1.114h2.856v.22c0 1.464-1.289 2.76-3.296 3.266l.616 1.084c1.611-.418 2.805-1.34 3.398-2.556.601 1.106 1.794 1.94 3.355 2.307l.629-1.07c-2.006-.439-3.325-1.67-3.325-3.032zm-2.256 5.948h7.207v1.127h-7.177v3.34h9.023V87.03h-7.632V85.8h7.163v-3.24h-8.584v1.084zm4.732-4.205h2.475v2.55h1.377v-6.87h-1.377v3.207h-2.475v1.113zm16.846-4.32h-1.392v4.716h-2.71v1.142h2.71v7.295h1.392V75.12zm-11.104 9.491l.85 1.084c1.516-.776 2.71-2.41 3.296-4.314.585 1.787 1.75 3.318 3.266 4.05l.835-1.113c-2.014-.893-3.413-3.288-3.413-5.508v-1.23h2.915V76.44h-7.222v1.142h2.901v1.23c-.008 2.359-1.421 4.842-3.428 5.801zm23.423-9.477h-1.392v9.814h1.392v-4.438h1.904v-1.157h-1.904v-4.22zm-10.298 2.651h7.822v-1.128h-3.208V75.12h-1.391v1.538h-3.223v1.128zm.718 3.106c-.008 1.486 1.289 2.453 3.193 2.46 1.882-.007 3.179-.974 3.179-2.46 0-1.502-1.297-2.483-3.179-2.476-1.904-.007-3.201.974-3.193 2.476zm1.26 7.075h8.876v-1.128h-7.485v-2.666h-1.391v3.794zm.087-7.075c-.014-.865.733-1.4 1.846-1.407 1.113.008 1.86.542 1.875 1.407-.015.857-.762 1.384-1.875 1.377-1.113.007-1.86-.52-1.846-1.377zm21.329-4.952h-5.977v1.143h4.49c-.271 2.073-2.146 3.706-5.178 4.556l.571 1.084c3.801-1.077 6.094-3.443 6.094-6.783zm-4.424 12.13h8.584v-4.966h-8.584v4.965zm1.362-1.114v-2.74h5.845v2.74h-5.845zm3.12-7.383h2.71v2.989h1.392v-7.427h-1.392v3.281h-2.71v1.157zm16.773 2.27h-7.735v-1.786h7.324v-1.099h-7.324v-1.685h7.603v-1.142h-9.009v6.826h3.779v2.564h-5.288v1.142h12.012v-1.142h-5.332v-2.564h3.97v-1.113zm-37.141 21.524c-2.813 0-4.615.901-4.615 2.432 0 1.523 1.802 2.424 4.615 2.417 2.841.007 4.636-.894 4.643-2.417-.007-1.531-1.802-2.432-4.643-2.432zm-5.904-1.084h11.939v-1.128h-5.786v-2.46h-1.363v2.46h-4.79v1.128zm1.392-5.405h7.676c0 1.018 0 1.985-.352 3.325l1.362.147c.374-1.355.374-2.44.367-3.487v-1.098h-9.053v1.113zm1.289 8.921c-.015-.864 1.238-1.37 3.223-1.377 2.006.007 3.251.513 3.266 1.377-.015.849-1.26 1.34-3.266 1.347-1.985-.007-3.238-.498-3.223-1.347zm21.211-10.679h-1.392v3.34h-2.446v1.143h2.446v3.325h1.392V95.12zm-10.943 6.621l.733 1.113a5.557 5.557 0 003.288-3.222 5.242 5.242 0 003.128 2.856l.718-1.098c-1.985-.674-3.172-2.293-3.164-3.955v-.279h2.812v-1.128h-7.075v1.128h2.842v.293c.007 1.81-1.245 3.582-3.282 4.292zm2.11 4.029c-.008 1.56 1.677 2.468 4.438 2.475 2.747-.007 4.431-.915 4.439-2.475-.008-1.561-1.692-2.469-4.439-2.476-2.761.007-4.446.915-4.438 2.476zm1.377 0c-.008-.894 1.135-1.399 3.061-1.392 1.912-.007 3.054.498 3.062 1.392-.008.886-1.15 1.391-3.062 1.376-1.926.015-3.069-.49-3.061-1.376zm87.386 49.555h-1.377v4.351h8.848v-4.351h-1.392v1.143h-6.079v-1.143zm-2.944 6.431h5.273v1.128h-3.838v1.04h7.647v1.025h-7.632v3.164h9.375v-1.069h-8.013v-1.099h7.647v-3.061h-3.794v-1.128h5.302v-1.128h-11.967v1.128zm2.944-3.135v-1.128h6.079v1.128h-6.079zm20.332-3.516h-1.392v9.654h1.392v-4.556h1.904v-1.172h-1.904v-3.926zm-10.107 4.175c-.015 1.912 1.508 3.274 3.486 3.267 1.985.007 3.486-1.355 3.501-3.267-.015-1.911-1.516-3.259-3.501-3.266-1.978.007-3.501 1.355-3.486 3.266zm1.362 0c-.015-1.223.923-2.051 2.124-2.051 1.216 0 2.131.828 2.139 2.051-.008 1.223-.923 2.051-2.139 2.051-1.201 0-2.139-.828-2.124-2.051zm.425 8.687h8.877v-1.128h-7.486v-3.091h-1.391v4.219zm21.914-12.847h-1.392v3.34h-2.446v1.143h2.446v3.325h1.392v-7.808zm-10.943 6.621l.733 1.113a5.557 5.557 0 003.288-3.222 5.242 5.242 0 003.128 2.856l.718-1.098c-1.985-.674-3.172-2.293-3.164-3.955v-.279h2.812v-1.128h-7.075v1.128h2.842v.293c.007 1.809-1.246 3.582-3.282 4.292zm2.11 4.029c-.008 1.56 1.677 2.468 4.438 2.475 2.747-.007 4.431-.915 4.439-2.475-.008-1.561-1.692-2.469-4.439-2.476-2.761.007-4.446.915-4.438 2.476zm1.377 0c-.008-.894 1.135-1.399 3.061-1.392 1.912-.007 3.054.498 3.062 1.392-.008.886-1.15 1.391-3.062 1.376-1.926.015-3.069-.49-3.061-1.376zm25.151-.323h-2.871v-3.457c1.055-.593 1.685-1.523 1.685-2.68 0-2.066-2.029-3.421-4.849-3.428-2.813.007-4.841 1.362-4.834 3.428-.007 1.179.652 2.116 1.728 2.71v3.427h-2.871v1.157h12.012v-1.157zm-9.521-6.137c0-1.414 1.428-2.315 3.486-2.315 2.043 0 3.494.901 3.501 2.315-.007 1.406-1.458 2.321-3.501 2.329-2.058-.008-3.486-.923-3.486-2.329zm1.757 6.137v-2.915a7.556 7.556 0 001.729.191c.63 0 1.223-.066 1.758-.191v2.915h-3.487zm20.728-.014h-5.376v-3.121h-1.377v3.121h-5.259v1.142h12.012v-1.142zm-11.602-4.029l.616 1.143c2.116-.418 4.05-1.743 4.914-3.53.864 1.794 2.813 3.112 4.944 3.53l.601-1.143c-2.535-.425-4.82-2.373-4.82-4.453v-.996h-1.465v.996c-.007 2.08-2.263 4.028-4.79 4.453zM271.78 178.46v-2.241h-1.391v2.241c-.008 2.402-1.37 4.922-3.384 5.889l.864 1.128c1.494-.777 2.644-2.352 3.23-4.212.579 1.751 1.685 3.215 3.113 3.963l.864-1.114c-1.955-.952-3.31-3.332-3.296-5.654zm4.278 9.785h1.391v-6.709h2.11v-1.186h-2.11v-5.23h-1.391v13.125zm15.073-13.11h-1.392v3.545h-2.505v1.128h2.505v4.936h1.392v-9.609zm-10.928 6.87l.718 1.128a5.458 5.458 0 003.281-3.164c.571 1.303 1.663 2.358 3.135 2.871l.718-1.113c-1.985-.66-3.172-2.308-3.164-3.941v-.513h2.812v-1.142h-7.075v1.142h2.842v.513c.007 1.809-1.253 3.538-3.267 4.219zm2.402 5.962h8.877v-1.128h-7.485v-2.959h-1.392v4.087zm18.707-8.628v-.864h2.885v-1.114h-2.856v-1.977h-1.406v1.977h-2.886v1.114h2.9v.864c-.007 2.161-1.296 4.402-3.296 5.317l.777 1.07c1.501-.696 2.644-2.146 3.222-3.882.557 1.604 1.634 2.973 3.062 3.647l.791-1.054c-1.956-.938-3.193-3.077-3.193-5.098zm4.335 8.906h1.392v-6.665h2.109v-1.172h-2.109v-5.288h-1.392v13.125zm14.444-13.14h-1.392v9.507h1.392v-4.541h1.919v-1.157h-1.919v-3.809zm-9.727 7.237h1.04c2.813 0 4.366-.088 6.138-.44l-.161-1.128c-1.648.337-3.084.418-5.64.411v-3.824h4.483v-1.128h-5.86v6.109zm1.407 5.625h8.876v-1.128h-7.485v-3.208h-1.391v4.336zm-89.712 128.02v-1.391h2.988v-1.158h-7.398v1.158h3.003v1.391c-.014 2.263-1.479 4.724-3.457 5.655l.806 1.098c1.531-.747 2.761-2.344 3.369-4.219.608 1.751 1.838 3.201 3.384 3.882l.762-1.084c-2.022-.864-3.465-3.134-3.457-5.332zm4.643 9.258h1.392V312.12h-1.392v13.125zm15.484-6.606h-5.332v-1.919h-1.377v1.919h-5.289v1.142h11.998v-1.142zm-11.309-2.3l.513 1.099c2.094-.337 3.933-1.348 4.768-2.798.835 1.45 2.673 2.461 4.753 2.798l.542-1.099c-2.534-.322-4.592-1.78-4.585-3.457v-.557h-1.406v.557c-.007 1.655-2.073 3.135-4.585 3.457zm.644 5.698h7.764v3.208h1.406v-4.307h-9.17v1.099zm16.333-7.588v-.351h2.813v-1.128h-7.075v1.128h2.842v.366c.007 1.78-1.253 3.53-3.267 4.219l.718 1.098a5.432 5.432 0 003.281-3.149 5.252 5.252 0 003.135 2.856l.718-1.084c-1.985-.681-3.172-2.3-3.165-3.955zm-2.651 7.31h7.5v3.486h1.392v-4.614h-8.892v1.128zm5.068-5.156h2.432v3.369h1.392v-7.852h-1.392v3.34h-2.432v1.143zM267 312.135h-1.392v9.536H267v-9.536zm-10.62 4.131c.007 1.926 1.516 3.266 3.501 3.266 1.977 0 3.486-1.34 3.486-3.266 0-1.897-1.509-3.245-3.486-3.252-1.985.007-3.494 1.355-3.501 3.252zm1.362 0c-.007-1.209.916-2.037 2.139-2.037 1.201 0 2.124.828 2.124 2.037 0 1.237-.923 2.05-2.124 2.05-1.223 0-2.146-.813-2.139-2.05zm.674 8.701h8.98v-1.128h-7.574v-3.135h-1.406v4.263zm-30.249 7.168h-1.392v1.977h-3.274c-.615-.732-1.56-1.179-2.644-1.186-1.977.014-3.449 1.399-3.442 3.34-.007 1.926 1.465 3.31 3.442 3.31 1.092 0 2.044-.447 2.659-1.186h3.259v3.413h1.392v-9.668zm-9.419 4.131c-.007-1.238.879-2.088 2.109-2.095 1.18.007 2.081.857 2.081 2.095 0 1.237-.901 2.087-2.081 2.08-1.23.007-2.116-.843-2.109-2.08zm.894 8.701h8.877v-1.128h-7.486v-3.047h-1.391v4.175zm4.475-9.727h2.658v2.022h-2.651c.095-.308.147-.645.147-.996 0-.367-.052-.704-.154-1.026zm16.516-2.3h-8.98v1.143h7.603v.015c-.007 1.223-.007 2.592-.396 4.467h-8.672v1.143h5.245v5.552h1.406v-5.552h5.317v-1.143h-1.889c.366-1.867.366-3.222.366-4.467v-1.158zm17.417-.82h-1.333v5.186h-1.626v-4.834h-1.304v12.143h1.304v-6.181h1.626v6.811h1.333V332.12zm-11.279 9.375l.805.967c3.757-2.117 4.9-5.222 4.907-8.672h-5.156v1.143h3.801c-.219 2.673-1.442 4.907-4.357 6.562zm14.882-8.818h-1.362v5.727h6.182v-5.727h-1.377v1.787h-3.443v-1.787zm-.044 7.866h7.105v1.186h-7.075v3.384h8.906V344h-7.544v-1.245h7.09v-3.311h-8.482v1.099zm.044-3.252v-1.758h3.443v1.758h-3.443zm7.046 1.582h1.392v-2.871h1.904v-1.128h-1.904v-2.754h-1.392v6.753zM60.787 312.677h-1.363v5.727h6.182v-5.727h-1.377v1.787h-3.442v-1.787zm-.044 7.866h7.104v1.186h-7.075v3.384h8.906V324h-7.544v-1.245h7.09v-3.311h-8.481v1.099zm.044-3.252v-1.758h3.442v1.758h-3.442zm7.045 1.582h1.392v-2.871h1.904v-1.128h-1.904v-2.754h-1.392v6.753zm8.057-4.233v-1.7h-1.347v1.7c0 1.457-.953 3.127-2.725 3.896l.762 1.084c1.274-.549 2.168-1.604 2.651-2.82a4.492 4.492 0 002.549 2.439l.732-1.069c-1.706-.645-2.622-2.095-2.622-3.53zm-1.655 8.203c-.015 1.494 1.692 2.38 4.438 2.373 2.74.007 4.46-.879 4.468-2.373-.007-1.494-1.728-2.381-4.468-2.388-2.746.007-4.453.894-4.438 2.388zm1.377 0c-.015-.843 1.15-1.326 3.061-1.319 1.905-.007 3.07.476 3.077 1.319-.008.835-1.172 1.318-3.077 1.303-1.911.015-3.076-.468-3.061-1.303zm3.31-3.047h1.29v-3.106h1.538v3.516h1.318v-8.071h-1.318v3.413H80.21v-3.179h-1.289v7.427zm16.23-7.661h-1.39v9.814h1.39v-4.438h1.905v-1.157h-1.904v-4.219zm-10.297 2.651h7.822v-1.128h-3.208v-1.538h-1.391v1.538h-3.223v1.128zm.718 3.106c-.008 1.486 1.289 2.453 3.193 2.461 1.882-.008 3.179-.975 3.179-2.461 0-1.502-1.297-2.483-3.179-2.476-1.904-.007-3.2.974-3.193 2.476zm1.26 7.075h8.877v-1.128h-7.486v-2.666h-1.391v3.794zm.087-7.075c-.014-.865.733-1.399 1.846-1.407 1.113.008 1.86.542 1.875 1.407-.014.857-.762 1.384-1.875 1.377-1.113.007-1.86-.52-1.846-1.377zm26.543.864h-12.011v1.128h5.42v2.549h1.377v-2.549h5.214v-1.128zm-10.517 6.211h9.184v-1.128h-7.793v-2.651h-1.391v3.779zm.044-7.573h8.921v-4.659h-8.921v4.659zm1.362-1.099v-2.461h6.182v2.461h-6.182zm21.343-4.175h-1.333v13.125h1.333V312.12zm-11.455 9.507l.849 1.04c1.282-.798 2.176-2.263 2.644-3.977.462 1.582 1.319 2.922 2.571 3.669l.835-1.025c-1.846-1.062-2.754-3.311-2.754-5.552v-1.054h2.256V313.6h-6.006v1.128h2.417v1.054c-.007 2.337-.952 4.724-2.812 5.845zm5.434-3.721h2.036v6.68h1.319v-12.188h-1.319v4.366h-2.036v1.142zM93.987 340.03H82.02v1.143h5.289v4.087h1.377v-4.087h5.302v-1.143zm-11.264-2.021l.512 1.113c2.117-.293 3.919-1.267 4.768-2.622.85 1.34 2.644 2.329 4.754 2.622l.498-1.113c-2.498-.315-4.483-1.721-4.556-3.179h4.146v-1.128h-4.16v-1.582h-1.377v1.582h-4.16v1.128h4.16c-.088 1.472-2.095 2.864-4.585 3.179zm23.203 2.724h-8.892v1.158h7.5v3.369h1.392v-4.527zm-10.943-1.801l.674 1.084c1.546-.513 2.688-1.575 3.26-2.93.593 1.252 1.735 2.226 3.273 2.695l.63-1.113c-1.999-.579-3.237-2.058-3.237-3.662v-.235h2.856v-1.127h-2.841v-1.582h-1.392v1.582H95.35v1.127h2.856v.235c0 1.706-1.23 3.288-3.223 3.926zm7.002-1.905h2.549v3.091h1.392v-7.998h-1.392v3.765h-2.549v1.142zm-78.522-180.75H17.28v8.863h1.055c2.424-.008 4.167-.074 6.196-.411l-.132-1.127c-1.897.315-3.523.395-5.712.41v-2.945h4.511v-1.113h-4.512v-2.534h4.776v-1.143zm2.095 11.968h1.391v-6.782h2.11v-1.172h-2.11v-5.171h-1.391v13.125zm11.528-11.865h-2.93v-1.377H32.78v1.377h-3.076v1.113h7.383v-1.113zm-6.65 4.043c0 1.428 1.23 2.366 3.017 2.373 1.765-.007 3.025-.945 3.032-2.373-.007-1.414-1.267-2.366-3.032-2.373-1.787.007-3.018.959-3.018 2.373zm1.303 0c-.007-.798.674-1.311 1.714-1.304 1.025-.007 1.729.506 1.743 1.304-.014.813-.718 1.333-1.743 1.333-1.04 0-1.721-.52-1.714-1.333zm.25 7.661h8.642v-4.658h-1.377v1.245h-5.889v-1.245h-1.377v4.658zm1.376-1.099v-1.245h5.889v1.245h-5.889zm3.75-5.185h2.124v1.098h1.392v-7.778h-1.392v2.974h-2.11v1.142h2.11v1.436h-2.124v1.128zm8.335 1.011h-1.303v5.273h4.643v-5.273h-1.289v1.523h-2.05v-1.523zm-2.607-4.102c-.008 1.809 1.435 3.054 3.442 3.047 1.743.007 3.091-.989 3.362-2.49h2.556v2.812h1.392v-6.958h-1.392v3.003H49.64c-.286-1.472-1.626-2.446-3.355-2.446-2.007 0-3.45 1.238-3.442 3.032zm1.333 0c-.008-1.121.871-1.882 2.11-1.875 1.215-.007 2.08.754 2.08 1.875 0 1.135-.865 1.912-2.08 1.919-1.239-.007-2.117-.784-2.11-1.919zM45.45 167v-1.611h2.051V167h-2.05zm3.413.132l.703 1.055c1.128-.469 1.897-1.341 2.33-2.352.417 1.04 1.186 1.897 2.373 2.352l.717-1.055c-1.618-.571-2.395-1.963-2.387-3.34v-1.069h-1.377v1.069c0 1.311-.777 2.688-2.359 3.34zm17.373-8.174h-7.66v-3.369h-1.378v4.482h9.038v-1.113zm-10.634 3.882h12.011v-1.113H55.602v1.113zm1.494 5.098h9.228v-1.143h-7.837v-2.71h-1.391v3.853zm-43.198 13.466H1.93v1.114h5.288v1.406H3.365v4.16h9.068v-4.16H8.595v-1.406h5.303v-1.114zm-10.87-4.746h1.92v2.505H3.086v1.128h9.624v-1.128h-1.846v-2.505h1.905v-1.128H3.027v1.128zm1.714 10.298v-1.934h6.343v1.934H4.742zm1.582-7.793v-2.505h3.15v2.505h-3.15zm19.439-4.043h-1.377v6.782h1.377v-6.782zm-10.723 5.742l.645 1.099c1.61-.505 2.812-1.597 3.39-2.988.594 1.259 1.751 2.248 3.304 2.71l.674-1.07c-2.044-.578-3.296-2.058-3.296-3.662h2.886v-1.128h-7.237v1.128h2.945c-.008 1.699-1.275 3.281-3.311 3.911zm2.11 2.71h7.25v1.172h-7.207v3.369h9.024v-1.084H18.54v-1.274h7.236v-3.252H17.15v1.069zm21.68-7.456h-6.622v1.143h5.252a17.936 17.936 0 01-.345 3.34l1.377.131c.323-1.699.323-3.002.337-3.881v-.733zm-7.413 5.742l.132 1.128c2.314-.007 5.449-.058 8.188-.542l-.088-1.01c-1.318.19-2.768.293-4.174.351v-2.724h-1.377v2.768c-.96.022-1.875.029-2.681.029zm1.992 6.109h8.921v-1.128H34.8v-2.754h-1.39v3.882zm7.075-2.988h1.421v-4.512h1.802v-1.172h-1.802v-4.175h-1.42v9.859zm14.898-9.859H53.99v13.154h1.392V175.12zm-10.166 2.315h4.731v2.548H45.23v5.142h1.114c2.322-.007 4.3-.095 6.62-.483l-.131-1.143c-2.197.359-4.05.461-6.182.469v-2.871h4.717v-4.79h-6.152v1.128zm27.89 4.321H61.095v1.128h5.42v2.549h1.377v-2.549h5.214v-1.128zm-10.517 6.211h9.184v-1.128h-7.792v-2.651h-1.392v3.779zm.044-7.573h8.92v-4.659h-8.92v4.659zm1.362-1.099v-2.461h6.182v2.461h-6.182zm20.361-4.175h-1.391v13.125h1.391v-6.46h1.978v-1.172h-1.978v-5.493zm-10.444 9.551l.22 1.157c2.263.007 5.332-.022 8.174-.527l-.088-1.026a39.034 39.034 0 01-3.428.308v-1.282c1.487-.212 2.468-1.113 2.476-2.38-.008-1.48-1.304-2.454-3.164-2.461-1.868.007-3.15.981-3.135 2.461-.015 1.267.952 2.161 2.431 2.38v1.333c-1.252.037-2.453.037-3.486.037zm.25-6.885h7.865v-1.113H78.79v-1.524h-1.392v1.524h-3.237v1.113zm2.108 3.135c0-.842.733-1.377 1.832-1.377 1.098 0 1.823.535 1.83 1.377-.007.835-.732 1.355-1.83 1.348-1.1.007-1.832-.513-1.832-1.348z" fill="#6D6D7E"/></g></svg>