<svg width="1085" height="900" viewBox="0 0 1085 900" fill="none" xmlns="http://www.w3.org/2000/svg"><circle cx="543" cy="450" r="449.5" stroke="#D6D6E3"/><circle cx="542.634" cy="449.634" r="294.134" stroke="#D6D6E3"/><circle cx="543" cy="148.351" r="81.175" fill="#fff"/><path d="M463.868 232.414v-6.823h-2.176v17.638h2.176v-8.992h2.721v-1.823h-2.721zm-10.905 1.34h5.829v-1.72h-5.829v-3.156h6.133v-1.775h-8.329v12.044h1.45c3.17-.014 5.546-.096 8.253-.525l-.2-1.761c-2.459.401-4.579.511-7.307.532v-3.639zm20.51-6.554v-1.761h-2.161v1.761h-3.951v1.726h9.855V227.2h-3.743zm6.471 2.279h-2.596v1.754h2.596v1.706h-2.624v1.754h2.624v1.374h2.169v-10.476h-2.169v3.888zm-3.439 3.273c-.014-1.899-1.733-3.197-4.13-3.197-2.417 0-4.102 1.298-4.088 3.197-.014 1.913 1.671 3.184 4.088 3.184 2.397 0 4.116-1.271 4.13-3.184zm-6.195 0c-.007-.98.808-1.561 2.065-1.561 1.236 0 2.1.581 2.107 1.561-.007.988-.871 1.596-2.107 1.596-1.257 0-2.072-.608-2.065-1.596zm2.21 5.491v-1.485h-2.161v6.264h11.754v-6.264h-2.155v1.485h-7.438zm0 3.087v-1.451h7.438v1.451h-7.438zm24.709-10.049v3.654h2.169v-9.344h-2.169v3.908h-3.197c-.442-1.919-2.238-3.197-4.524-3.197-2.7 0-4.668 1.692-4.654 4.116-.014 2.438 1.954 4.137 4.654 4.137 2.307 0 4.116-1.306 4.538-3.274h3.183zm-10.31-.863c0-1.409 1.07-2.32 2.589-2.32 1.492 0 2.556.911 2.556 2.32 0 1.423-1.064 2.348-2.556 2.362-1.519-.014-2.589-.939-2.589-2.362zm11.229 5.366h-2.162v1.402c-.013 1.692-.953 3.453-3.038 4.323v-5.587h-2.01v1.892h-2.32v-1.892h-2.024v7.1h6.354v-1.395l1.036 1.54c1.471-.594 2.472-1.679 3.052-2.977.559 1.34 1.561 2.41 3.122 2.977l1.118-1.63c-2.189-.739-3.135-2.521-3.128-4.351v-1.402zm-9.53 5.573v-1.92h2.32v1.92h-2.32zm17.506-10.78v-4.351h-2.162v6.07H516.2v-1.719h-10.076zm-4.248 5.49h16.14v-1.713h-16.14v1.713zm1.941 1.561v5.2h12.493v-1.761h-10.324v-3.439h-2.169zm21.651-6.747v1.754h12.97v-1.754h-2.334v-3.018h2.431v-1.754h-13.163v1.754h2.431v3.018h-2.335zm4.496 0v-3.018h3.964v3.018h-3.964zm10.049 3.066h-16.085v1.727h6.948v1.705h-5.048v5.643h12.237v-5.643h-5.027v-1.705h6.975v-1.727zm-12.045 7.32v-2.196h7.984v2.196h-7.984zm25.766-15.676v9.088h2.148v-9.088h-2.148zm-6.878 5.407c.794 1.595 2.279 2.852 4.344 3.446l1.043-1.678c-2.728-.739-4.22-2.597-4.317-4.551h3.709v-1.747h-9.717v1.747h3.791c-.096 2.086-1.609 4.075-4.357 4.883l.994 1.719c2.176-.649 3.716-2.051 4.51-3.819zm-.497 8.978h9.551v-4.544h-11.72v1.657h9.558v1.312h-9.503v4.683h12.196v-1.685h-10.082v-1.423zm30.96-14.385h-2.21v13.225h2.21v-5.905h2.286v-1.823h-2.286v-5.497zm-4.647 7.548c.414-2.231.414-3.992.428-5.193v-1.05h-8.992v1.789h6.865a23.8 23.8 0 01-.442 4.261l2.141.193zm1.402.836c-1.72.248-3.592.386-5.422.462v-3.515h-2.154v3.584c-1.237.028-2.404.035-3.44.035l.194 1.74c3.087-.007 7.265-.076 10.939-.732l-.117-1.574zm-8.384 3.653v5.269h12.196v-1.761h-10.014v-3.508h-2.182zm27.388 5.642h2.162v-17.679h-2.162v17.679zm-9.337-9.523h6.064v-6.623h-8.315v1.761h6.105v3.135h-6.091v7.065h1.547c3.17 0 5.808-.11 8.812-.628l-.194-1.775c-2.755.463-5.151.601-7.928.614v-3.549zm20.844-7.355v6.388h12.016v-6.388h-12.016zm2.12 4.682v-2.983h7.755v2.983h-7.755zm-4.164 5.083h7.175v3.225h2.148v-3.225h6.816v-1.747h-16.139v1.747zm1.954 1.623v5.117h12.403v-1.761h-10.235v-3.356h-2.168zm29.315-4.903v-7.286h-2.182v17.638h2.182v-8.55h2.473v-1.802h-2.473zm-7.479-5.256v-1.961h-2.182v1.961h-4.185v1.72h10.525v-1.72h-4.158zm0 9.026c1.92-.324 3.205-1.533 3.218-3.197-.013-1.982-1.788-3.308-4.295-3.308-2.542 0-4.289 1.326-4.282 3.308-.007 1.664 1.25 2.866 3.177 3.19v1.658c-1.623.041-3.177.048-4.517.048l.311 1.789c3.004 0 7.093-.035 10.884-.718l-.145-1.596a50.654 50.654 0 01-4.351.394v-1.568zm-3.301-3.197c-.007-1.022.884-1.644 2.224-1.644 1.319 0 2.21.622 2.21 1.644 0 1.022-.891 1.623-2.21 1.616-1.34.007-2.231-.594-2.224-1.616z" fill="#31313F"/><path d="M525.7 111.825c0-4.71-3.815-8.528-8.52-8.528s-8.519 3.818-8.519 8.528v4.447c0 4.71 3.814 8.529 8.519 8.529s8.52-3.819 8.52-8.529v-4.447zm2.643 52.157h-22.324c-4.684 0-8.529-3.827-8.529-8.529v-17.094c0-4.683 3.827-8.529 8.529-8.529h22.324c4.683 0 8.529 3.827 8.529 8.529v12.848" stroke="#6D6D7E" stroke-width="2" stroke-linecap="round" stroke-linejoin="round"/><path d="M520.98 153.959h-11.536a1.932 1.932 0 01-1.931-1.932v-11.536m-4.593 22.78v33.477m28.52-33.477v33.477m-14.251-18.862v18.862" stroke="#6D6D7E" stroke-width="2" stroke-linecap="round" stroke-linejoin="round"/><path d="M546.985 139h-20.939a4.404 4.404 0 00-4.264 3.298L514 172.131h25.932l8.237-31.6a1.226 1.226 0 00-1.184-1.531z" fill="#fff" stroke="#6D6D7E" stroke-width="2" stroke-linecap="round" stroke-linejoin="round"/><path d="M547.53 138.833a4.405 4.405 0 014.265 3.298l.619 2.315H529.89l-.62-2.315a4.425 4.425 0 00-4.264-3.298h22.524zm37.925 12.774l-6.561-1.913-2.733 6.251-8.347-17.914 9.276-4.337 8.365 17.913z" fill="#fff" stroke="#6D6D7E" stroke-width="2" stroke-linecap="round" stroke-linejoin="round"/><path d="M556.189 151.607l6.542-1.913 2.734 6.251 8.364-17.914-9.294-4.337-8.346 17.913z" fill="#fff" stroke="#6D6D7E" stroke-width="2" stroke-linecap="round" stroke-linejoin="round"/><path d="M590.522 123.762l-3.207 3.28a3.176 3.176 0 00-.912 2.223l-.054 4.593a3.229 3.229 0 01-3.189 3.189l-4.593.054c-.838 0-1.622.347-2.223.912l-3.28 3.207c-1.258 1.221-3.262 1.221-4.502 0l-3.28-3.207a3.176 3.176 0 00-2.223-.912l-4.592-.054a3.23 3.23 0 01-3.19-3.189l-.054-4.593c0-.838-.346-1.622-.911-2.223l-3.208-3.28c-1.221-1.258-1.221-3.262 0-4.501l3.208-3.281a3.175 3.175 0 00.911-2.223l.054-4.592a3.23 3.23 0 013.19-3.19l4.592-.054c.838 0 1.622-.346 2.223-.911l3.28-3.208c1.258-1.221 3.263-1.221 4.502 0l3.28 3.208a3.175 3.175 0 002.223.911l4.593.054a3.23 3.23 0 013.189 3.19l.054 4.592c0 .838.347 1.622.912 2.223l3.207 3.281c1.221 1.257 1.221 3.262 0 4.501z" fill="#fff" stroke="#6D6D7E" stroke-width="2" stroke-linecap="round" stroke-linejoin="round"/><path d="M570.822 133.839c6.814 0 12.338-5.523 12.338-12.337s-5.524-12.337-12.338-12.337c-6.813 0-12.337 5.523-12.337 12.337s5.524 12.337 12.337 12.337z" fill="#fff" stroke="#E82324" stroke-width="2" stroke-linecap="round" stroke-linejoin="round"/><path d="M565.409 120.937l4.483 4.483 7.545-7.545" fill="#fff"/><path d="M565.409 120.937l4.483 4.483 7.545-7.545" stroke="#E82324" stroke-width="2" stroke-linecap="round" stroke-linejoin="round"/><circle cx="831.62" cy="375.841" r="103.222" fill="#fff"/><path d="M759.156 429.304v1.375h-7.624v-1.375h-2.148v5.87h11.934v-5.87h-2.162zm-7.624 4.248v-1.292h7.624v1.292h-7.624zm11.858 2.721h-16.084v1.768h6.926v1.305h-5.034v1.609h10.048v1.153h-10.027v4.413h12.652v-1.657h-10.525v-1.236h10.041v-4.282h-4.972v-1.305h6.975v-1.768zm15.13-7.245h-2.182v12.908h2.182v-5.94h2.466v-1.802h-2.466v-5.166zm-4.212 5.608c-.014-2.597-2.072-4.434-4.759-4.434-2.686 0-4.779 1.837-4.765 4.434-.014 2.576 2.079 4.44 4.765 4.44 2.687 0 4.745-1.864 4.759-4.44zm-7.39 0c-.014-1.554 1.153-2.542 2.631-2.542 1.492 0 2.632.988 2.639 2.542-.007 1.54-1.147 2.541-2.639 2.541-1.478 0-2.645-1.001-2.631-2.541zm.29 5.946v5.753h12.003v-1.761h-9.841v-3.992h-2.162zm24.267-5.38h3.018v4.316h2.169v-10.49h-2.169v4.399h-3.018v1.775zm-4.178.124c.774 1.665 2.169 3.011 4.13 3.674l1.084-1.719c-2.728-.912-4.15-3.08-4.15-5.242v-.11h3.653v-1.755h-9.544v1.755h3.681v.131c0 2.341-1.492 4.717-4.33 5.684l1.132 1.719c2.1-.739 3.571-2.258 4.344-4.137zm3.391 4.627c-3.729.007-6.015 1.244-6.008 3.364-.007 2.12 2.279 3.356 6.008 3.363 3.736-.007 6.022-1.243 6.022-3.363s-2.286-3.357-6.022-3.364zm0 5.042c-2.458.014-3.86-.58-3.847-1.678-.013-1.105 1.389-1.692 3.847-1.692 2.466 0 3.861.587 3.868 1.692-.007 1.098-1.402 1.692-3.868 1.678zm25.636-6.754c1.368-.815 2.196-2.058 2.196-3.598 0-2.811-2.776-4.669-6.581-4.676-3.805.007-6.561 1.865-6.554 4.676-.007 1.567.843 2.831 2.252 3.639v4.468h-3.73v1.782h16.14v-1.782h-3.723v-4.509zm-4.385-6.54c2.624-.007 4.448 1.105 4.448 2.942 0 1.809-1.824 2.962-4.448 2.962-2.645 0-4.427-1.153-4.427-2.962 0-1.837 1.782-2.949 4.427-2.942zm-2.155 7.375c.67.145 1.388.221 2.155.221.78 0 1.512-.076 2.189-.221v3.674h-4.344v-3.674zm19.378-4.578c1.174 2.306 3.619 4.019 6.602 4.592l.939-1.809c-3.722-.594-6.395-3.232-6.388-5.891v-1.291h-2.306v1.291c-.014 2.652-2.652 5.297-6.354 5.891l.939 1.809c2.977-.559 5.408-2.299 6.568-4.592zm1.091 4.143h-2.155v4.096h-6.906v1.754h16.14v-1.754h-7.079v-4.096zm26.797-2.693v-6.92h-2.176v17.638h2.176v-8.874h2.721v-1.844h-2.721zm-7.521-5.504h-2.169v2.824c-.013 3.253-1.629 6.63-4.475 7.97l1.34 1.754c2.017-1.015 3.46-3.011 4.24-5.407.753 2.244 2.121 4.109 4.04 5.076l1.319-1.741c-2.727-1.319-4.309-4.509-4.295-7.652v-2.824zm20.469 5.027h3.128v6.471h2.169v-12.9h-2.169v4.675h-3.128v1.754zm-4.075.346c.767 1.664 2.162 3.018 4.137 3.681l1.084-1.72c-2.728-.905-4.15-3.101-4.15-5.221v-.49h3.653v-1.754h-9.544v1.754h3.681v.476c0 2.348-1.506 4.655-4.317 5.573l1.119 1.762c2.093-.719 3.557-2.21 4.337-4.061zm-.041 4.986h-2.169v5.532h12.024v-1.761h-9.855v-3.771zm30.484-4.8v-6.975h-2.175v17.638h2.175v-8.833h2.721v-1.83h-2.721zm-7.61-2.3h3.729v-1.733h-3.709v-2.569h-2.182v2.569h-3.757v1.733h3.771v.926c-.007 2.776-1.561 5.78-4.351 7.03l1.208 1.678c2.017-.904 3.467-2.783 4.234-5.006.746 2.064 2.127 3.819 4.033 4.703l1.215-1.651c-2.72-1.291-4.198-4.144-4.191-6.754v-.926zm24.999-4.675h-2.183v12.763h2.183v-6.009h2.479v-1.795h-2.479v-4.959zm-3.785 7.452c-2.092.442-3.929.545-7.244.552v-4.8h5.753v-1.747h-7.915v8.315h1.437c3.846.007 5.904-.103 8.211-.559l-.242-1.761zm-7.527 3.971v5.884h12.002v-1.761h-9.841v-4.123h-2.161z" fill="#31313F"/><path d="M800.504 305.573c1.186-2.055 4.159-2.055 5.345 0l5.912 10.222 5.913 10.222c1.186 2.054-.301 4.626-2.672 4.626h-23.618c-2.372 0-3.858-2.572-2.672-4.626l5.912-10.222 5.913-10.222h-.033z" stroke="#6D6D7E" stroke-width="2" stroke-linecap="round" stroke-linejoin="round"/><path d="M802.058 321.975l-.284-7.851a1.384 1.384 0 011.387-1.436c.785 0 1.419.651 1.386 1.436l-.284 7.851a1.106 1.106 0 01-1.102 1.069 1.095 1.095 0 01-1.103-1.069zm1.119 4.158a1.002 1.002 0 100-2.004 1.002 1.002 0 000 2.004z" fill="#6D6D7E"/><path d="M805.414 368.659c1.286-2.222 4.493-2.222 5.779 0l6.397 11.073 6.397 11.074c1.286 2.222-.317 5.011-2.889 5.011h-25.572c-2.572 0-4.176-2.789-2.89-5.011l6.397-11.074 6.398-11.073h-.017z" stroke="#6D6D7E" stroke-width="2" stroke-linecap="round" stroke-linejoin="round"/><path d="M807.118 386.43l-.3-8.502a1.512 1.512 0 011.503-1.57c.852 0 1.536.702 1.503 1.57l-.301 8.502a1.187 1.187 0 01-1.202 1.153 1.2 1.2 0 01-1.203-1.153zm1.187 4.493a1.086 1.086 0 100-2.171 1.086 1.086 0 000 2.171z" fill="#6D6D7E"/><path d="M851.498 316.329c1.987-3.424 6.931-3.424 8.919 0l9.854 17.07 9.855 17.07c1.987 3.424-.501 7.717-4.46 7.717h-39.418c-3.958 0-6.447-4.293-4.459-7.717l9.854-17.07 9.855-17.07z" stroke="#6D6D7E" stroke-width="2" stroke-linecap="round" stroke-linejoin="round"/><path d="M854.103 343.688l-.468-13.095a2.315 2.315 0 012.322-2.405 2.315 2.315 0 012.321 2.405l-.467 13.095a1.848 1.848 0 01-1.854 1.787 1.846 1.846 0 01-1.854-1.787zm1.853 6.949a1.687 1.687 0 100-3.375 1.687 1.687 0 000 3.375z" fill="#6D6D7E"/><path d="M829.633 315.21a2.493 2.493 0 013.959 0 34.76 34.76 0 0027.392 13.362V349c0 17.738-11.074 33.605-27.727 39.718l-1.653.602-1.654-.602c-16.652-6.113-27.726-21.98-27.726-39.718v-20.428a34.76 34.76 0 0027.392-13.362h.017z" fill="#fff" stroke="#6D6D7E" stroke-width="2" stroke-linecap="round" stroke-linejoin="round"/><path d="M831.621 381.653c-13.496-4.994-22.549-18.005-22.549-32.403v-14.565a36.562 36.562 0 0020.845-9.938 2.452 2.452 0 013.407 0 36.775 36.775 0 0020.845 9.938v14.565c0 14.398-9.053 27.409-22.548 32.403z" fill="#fff" stroke="#E82324" stroke-width="2" stroke-linecap="round" stroke-linejoin="round"/><path d="M822.584 351.522l7.433 7.449 12.543-12.544" stroke="#E82324" stroke-width="2" stroke-linecap="round" stroke-linejoin="round"/><circle cx="731.405" cy="672.478" r="103.222" fill="#fff"/><path d="M684.636 738.293h2.189v-17.638h-2.189v17.638zm-5.836-14.116h3.854v-1.781h-9.952v1.781h3.888v1.485c-.014 3.011-1.747 6.299-4.537 7.576l1.25 1.713c2.072-.981 3.619-3.018 4.427-5.442.808 2.244 2.341 4.095 4.426 5l1.181-1.713c-2.838-1.188-4.537-4.233-4.537-7.134v-1.485zm18.625.09c1.126 1.858 3.432 3.163 6.333 3.619l.842-1.713c-3.688-.462-6.056-2.41-6.056-4.565v-.67h-2.21v.67c0 2.107-2.397 4.103-6.043 4.565l.794 1.713c2.901-.456 5.214-1.768 6.34-3.619zm1.098 2.604h-2.155v2.458h-6.947v1.754h16.105v-1.754h-7.003v-2.458zm2.838 7.32v4.102h2.183v-5.801h-12.341v1.699h10.158zm17.962-9.171h-2.997v1.782h2.997v4.378h2.169v-10.525h-2.169v4.365zm-7.203 1.927c.767 1.664 2.169 3.004 4.137 3.653l1.084-1.685c-2.728-.919-4.15-3.08-4.15-5.235v-.221h3.653v-1.74H707.3v1.74h3.681v.242c0 2.293-1.506 4.634-4.317 5.566l1.119 1.713c2.093-.705 3.557-2.189 4.337-4.033zm7.203 6.816v4.53h2.169v-6.277h-12.037v1.747h9.868zm17.189-13.094v12.756h2.175v-12.756h-2.175zm-7.445 9.993c2.687.007 4.751-1.816 4.751-4.427 0-2.569-2.064-4.406-4.751-4.406-2.686 0-4.765 1.837-4.758 4.406-.007 2.611 2.072 4.434 4.758 4.427zm-2.638-4.427c-.007-1.526 1.126-2.513 2.638-2.513 1.471 0 2.617.987 2.617 2.513 0 1.568-1.146 2.535-2.617 2.535-1.512 0-2.645-.967-2.638-2.535zm2.769 5.891h-2.189v5.836h12.175v-1.761h-9.986v-4.075zm29.442-2.886v4.378h2.168v-12.949h-2.168v2.569h-4.213c-.843-.946-2.093-1.512-3.508-1.519-2.659.014-4.669 1.899-4.655 4.53-.014 2.611 1.996 4.51 4.655 4.51 1.422 0 2.672-.573 3.515-1.519h4.206zm-10.311-2.991c0-1.574 1.077-2.59 2.59-2.59 1.45 0 2.555 1.016 2.555 2.59 0 1.575-1.105 2.583-2.555 2.59-1.513-.007-2.59-1.015-2.59-2.59zm10.311 1.236h-3.26c.104-.386.166-.801.166-1.236 0-.442-.062-.863-.173-1.257h3.267v2.493zm-7.245 4.814h-2.168v5.663h12.023v-1.761h-9.855v-3.902zm25.559-3.046c.47-2.493.47-4.302.47-5.953v-1.574h-12.21v1.747h10.048c0 1.581-.021 3.377-.504 5.78h-11.451v1.768h6.886v7.3h2.189v-7.3h7.01v-1.768h-2.438zm21.451-1.775h-1.899v-6.353h-2.024v16.353h2.024v-8.238h1.899v9.053h2.093v-17.638h-2.093v6.823zm-12.389-4.613v1.761h4.848c-.311 3.529-1.906 6.319-5.663 8.474l1.257 1.512c5.006-2.866 6.512-6.968 6.526-11.747h-6.968zm30.537-2.21h-2.182v9.027h2.182v-3.695h2.466v-1.768h-2.466v-3.564zm-7.064.774v2.244h-4.117v-2.244h-2.147v7.693h8.432v-7.693h-2.168zm-4.117 5.974v-2.079h4.117v2.079h-4.117zm11.181 7.61v-4.62H805v1.692h9.385v1.353h-9.358v4.71h12.079v-1.726h-9.938v-1.409h9.385z" fill="#31313F"/><path d="M768.385 664.244l9.905 9.888m-22.415-70.969h-51.027v66.61h51.027v-66.61z" stroke="#6D6D7E" stroke-width="2" stroke-linecap="round" stroke-linejoin="round"/><path d="M763.49 610.111h-51.026v66.61h51.026v-66.61z" fill="#fff" stroke="#6D6D7E" stroke-width="2" stroke-linecap="round" stroke-linejoin="round"/><path d="M722.903 622.204h30.148m-30.148 14.047h30.148m-30.148 14.047h30.148m-30.148 14.03h30.148" stroke="#6D6D7E" stroke-width="2" stroke-linecap="round" stroke-linejoin="round"/><path d="M752.834 670.691c12.148 0 21.997-9.848 21.997-21.997s-9.849-21.997-21.997-21.997c-12.149 0-21.998 9.848-21.998 21.997s9.849 21.997 21.998 21.997z" fill="#fff" stroke="#E82324" stroke-width="2" stroke-linecap="round" stroke-linejoin="round"/><path d="M768.469 648.694a15.66 15.66 0 01-.518 3.992m-9.989-18.774a15.623 15.623 0 019.17 8.452" stroke="#E82324" stroke-width="2" stroke-linecap="round" stroke-linejoin="round"/><path d="M777.843 667.303l-6.39 6.389 12.448 12.449 6.39-6.39-12.448-12.448z" stroke="#6D6D7E" stroke-width="2" stroke-miterlimit="10"/><circle cx="349.584" cy="672.478" r="103.222" fill="#fff"/><path d="M289.837 720.655h-2.182v9.027h2.182v-3.695h2.465v-1.768h-2.465v-3.564zm-7.065.774v2.244h-4.116v-2.244h-2.148v7.693h8.433v-7.693h-2.169zm-4.116 5.974v-2.079h4.116v2.079h-4.116zm11.181 7.61v-4.62h-11.554v1.692h9.386v1.353h-9.358v4.71h12.079v-1.726h-9.938v-1.409h9.385zm16.387-8.122v4.6h2.065v-10.822h-2.065v4.455h-1.768v-4.13h-2.016v9.944h2.016v-4.047h1.768zm-4.088 1.741c-2.32-.877-3.432-2.797-3.425-4.71v-2.176h-2.114v2.176c0 1.961-1.132 4.171-3.563 5.235l1.174 1.678c1.678-.705 2.824-2.058 3.474-3.64.635 1.375 1.726 2.5 3.301 3.101l1.153-1.664zm.193 3.149c-3.722 0-6.056 1.215-6.042 3.253-.014 2.03 2.32 3.253 6.042 3.246 3.695.007 6.043-1.216 6.05-3.246-.007-2.038-2.355-3.253-6.05-3.253zm0 4.841c-2.444.014-3.888-.552-3.881-1.588-.007-1.043 1.437-1.616 3.881-1.609 2.417-.007 3.861.566 3.875 1.609-.014 1.036-1.458 1.602-3.875 1.588zm14.489-13.998v-1.969h-2.162v1.969h-4.164v1.726h10.476v-1.726h-4.15zm7.589-1.955h-2.182v13.191h2.182v-5.857h2.466v-1.788h-2.466v-5.546zm-8.667 11.126c2.535.007 4.296-1.319 4.303-3.329-.007-2.03-1.768-3.377-4.303-3.377-2.576 0-4.344 1.347-4.337 3.377-.007 2.01 1.761 3.336 4.337 3.329zm-2.23-3.329c-.014-1.077.884-1.706 2.23-1.706 1.333 0 2.231.629 2.245 1.706-.014 1.057-.912 1.671-2.245 1.664-1.346.007-2.244-.607-2.23-1.664zm-.415 4.358v5.138h12.003v-1.761h-9.841v-3.377h-2.162zm21.438-11.368v6.389h12.016v-6.389h-12.016zm2.12 4.683v-2.984h7.755v2.984h-7.755zm-4.165 5.083h7.176v3.225h2.148v-3.225h6.816v-1.748h-16.14v1.748zm1.955 1.623v5.117h12.403v-1.761h-10.235v-3.356h-2.168zm28.48 5.448h2.058v-17.638h-2.058v17.638zm-6.112-11.484v1.754h2.541v8.881h2.037v-16.457h-2.037v5.822h-2.541zm-1.568-2.507h2.852v-1.754h-8.011v1.754h3.067v1.174c0 3.073-1.119 6.257-3.668 7.817l1.326 1.603c1.665-1.029 2.79-2.887 3.412-5.063.608 2.01 1.699 3.688 3.336 4.655l1.277-1.595c-2.527-1.45-3.598-4.441-3.591-7.417v-1.174zm18.247 5.87c2.942-.366 5.228-1.63 6.374-3.35 1.153 1.699 3.419 2.984 6.34 3.35l.787-1.713c-3.515-.428-5.815-2.251-6.029-3.992h5.449v-1.726h-5.483v-2.079h-2.155v2.079h-5.456v1.726h5.442c-.221 1.762-2.534 3.564-6.057 3.992l.788 1.713zm-1.665 1.077v1.782h6.948v5.29h2.155v-5.29h6.982v-1.782h-16.085zm22.576-3.646c.801 1.574 2.272 2.818 4.309 3.411l.988-1.726c-2.777-.78-4.248-2.721-4.248-4.758v-.187h3.688v-1.733h-3.66v-2.031h-2.189v2.031h-3.695v1.733h3.695v.187c0 2.175-1.478 4.247-4.241 5.089l1.043 1.679c2.079-.636 3.536-1.982 4.31-3.695zm7.327-2.024h-3.211v1.782h3.211v4.013h2.168v-10.719h-2.168v4.924zm0 8.357v4.385h2.168v-6.167h-12.037v1.782h9.869z" fill="#31313F"/><path d="M336.857 623.74c1.654-2.856 5.763-2.856 7.416 0l8.201 14.198 8.201 14.197c1.654 2.856-.417 6.414-3.708 6.414h-32.77c-3.291 0-5.362-3.575-3.708-6.414l8.201-14.197 8.201-14.198h-.034z" stroke="#6D6D7E" stroke-width="2" stroke-linecap="round" stroke-linejoin="round"/><path d="M339.029 646.506l-.384-10.89a1.933 1.933 0 011.937-2.004c1.103 0 1.971.902 1.938 2.004l-.384 10.89a1.545 1.545 0 01-1.537 1.487 1.533 1.533 0 01-1.536-1.487h-.034zm1.537 5.779a1.403 1.403 0 100-2.807 1.403 1.403 0 000 2.807z" fill="#6D6D7E"/><path d="M340.564 678.106c19.159 0 34.69-15.531 34.69-34.69s-15.531-34.69-34.69-34.69c-19.158 0-34.689 15.531-34.689 34.69s15.531 34.69 34.689 34.69z" stroke="#6D6D7E" stroke-width="2" stroke-linecap="round" stroke-linejoin="round"/><path d="M340.565 685.044c22.99 0 41.628-18.637 41.628-41.628 0-22.99-18.638-41.628-41.628-41.628-22.991 0-41.628 18.638-41.628 41.628 0 22.991 18.637 41.628 41.628 41.628z" stroke="#6D6D7E" stroke-width="2" stroke-linecap="round" stroke-linejoin="round"/><path d="M340.565 613.869v-16.536m-29.547 46.083h-16.536m46.083 29.547v16.535m29.546-46.082h16.536" stroke="#E82324" stroke-width="2" stroke-linecap="round" stroke-linejoin="round"/><circle cx="250.371" cy="375.841" r="103.222" fill="#fff"/><path d="M194.017 435.14c.815 1.409 2.327 2.472 4.42 2.935l.96-1.657c-2.763-.58-4.337-2.21-4.337-3.902v-.18h3.688v-1.733h-3.661v-1.651h-2.189v1.651h-3.695v1.733h3.695v.18c0 1.83-1.533 3.529-4.302 4.205l.939 1.665c2.155-.518 3.688-1.706 4.482-3.246zm4.247-.166h3.073v3.253h2.162v-9.199h-2.162v4.22h-3.073v1.726zm-4.206 8.502h9.441v-4.545h-11.637v1.665h9.475v1.284h-9.454v4.641h12.182v-1.685h-10.007v-1.36zm24.578-8.205h-3.391v1.775h3.391v9.662h2.183v-17.68h-2.183v6.243zm-6.146-2.742h3.791v-1.761h-9.786v1.761h3.778v1.188c-.007 3.225-1.678 6.568-4.503 7.894l1.299 1.713c2.058-1.036 3.563-3.136 4.337-5.629.773 2.334 2.237 4.289 4.288 5.263l1.285-1.72c-2.838-1.25-4.496-4.475-4.489-7.521v-1.188zm17.14-1.533v-1.968h-2.162v1.968h-4.164v1.727h10.477v-1.727h-4.151zm7.59-1.954h-2.182v13.191h2.182v-5.857h2.465v-1.788h-2.465v-5.546zm-8.667 11.126c2.534.007 4.295-1.319 4.302-3.329-.007-2.03-1.768-3.377-4.302-3.377-2.576 0-4.344 1.347-4.337 3.377-.007 2.01 1.761 3.336 4.337 3.329zm-2.231-3.329c-.014-1.077.884-1.706 2.231-1.706 1.333 0 2.23.629 2.244 1.706-.014 1.057-.911 1.671-2.244 1.664-1.347.007-2.245-.607-2.231-1.664zm-.414 4.358v5.138h12.002v-1.761h-9.841v-3.377h-2.161zm32.031-7.846h-3.398v1.789h3.398v3.833h2.168v-9.931h-2.168v4.309zm-3.481-3.252h-8.066v1.747h5.739c-.387 2.576-2.735 4.654-6.685 5.732l.87 1.699c5.138-1.444 8.135-4.627 8.142-9.178zm5.649 16.339v-6.747h-11.616v6.747h11.616zm-2.154-5.034v3.322h-7.334v-3.322h7.334zm13.79-1.747h5.215v-1.741h-10.18v-2.113h9.62v-1.713h-9.62v-2.009h10.021v-1.755h-12.224v9.331h4.986v3.204h-6.954v1.754h16.139v-1.754h-7.003v-3.204zm26.507-3.633c.497-1.816.497-3.301.497-4.703v-1.464H286.51v1.719h10.069c-.007 1.285-.035 2.521-.47 4.234l2.141.214zm-5.221-2.203h-2.148v3.197h-6.208v1.761h16.022v-1.761h-7.666v-3.197zm-.442 6.243c-3.805.007-6.243 1.215-6.243 3.308 0 2.058 2.438 3.287 6.243 3.28 3.84.007 6.257-1.222 6.271-3.28-.014-2.093-2.431-3.301-6.271-3.308zm0 4.917c-2.548 0-4.089-.566-4.075-1.609-.014-1.07 1.527-1.671 4.075-1.678 2.562.007 4.102.608 4.109 1.678-.007 1.043-1.547 1.609-4.109 1.609zm18.936-9.779h3.018v4.316h2.168v-10.49h-2.168v4.399h-3.018v1.775zm-4.179.124c.774 1.665 2.169 3.012 4.13 3.674l1.085-1.719c-2.728-.912-4.151-3.08-4.151-5.242v-.11h3.653v-1.754h-9.544v1.754h3.681v.131c0 2.341-1.492 4.717-4.33 5.684l1.132 1.719c2.1-.739 3.571-2.258 4.344-4.137zm3.391 4.628c-3.729.006-6.015 1.243-6.008 3.363-.007 2.12 2.279 3.356 6.008 3.363 3.736-.007 6.022-1.243 6.022-3.363s-2.286-3.357-6.022-3.363zm0 5.041c-2.458.014-3.86-.58-3.846-1.678-.014-1.105 1.388-1.692 3.846-1.692 2.466 0 3.861.587 3.868 1.692-.007 1.098-1.402 1.692-3.868 1.678z" fill="#31313F"/><path d="M242.357 325.949v-7.657h-3.614a14.338 14.338 0 00-1.188-2.887l2.558-2.558-5.412-5.412-2.558 2.558a13.79 13.79 0 00-2.888-1.188v-3.614h-7.656v3.614c-1.023.297-1.98.693-2.887 1.188l-2.558-2.558-5.412 5.412 2.558 2.558a13.781 13.781 0 00-1.188 2.887h-3.614v7.657h3.614c.297 1.023.693 1.98 1.188 2.887l-2.558 2.558 5.412 5.412 2.558-2.558c.907.495 1.881.908 2.887 1.188v3.614h7.656v-3.614a14.37 14.37 0 002.888-1.188l2.558 2.558 5.412-5.412-2.558-2.558c.495-.907.908-1.881 1.188-2.887h3.614z" stroke="#6D6D7E" stroke-width="2" stroke-linecap="round" stroke-linejoin="round"/><path d="M225.41 330.998a8.878 8.878 0 100-17.756 8.878 8.878 0 000 17.756z" stroke="#6D6D7E" stroke-width="2" stroke-linecap="round" stroke-linejoin="round"/><path d="M295.999 383.402h-73.294a9.366 9.366 0 01-9.372-9.372v-11.896a9.366 9.366 0 019.372-9.373h63.939a9.366 9.366 0 009.372-9.372v-11.896a9.366 9.366 0 00-9.372-9.373h-43.577" stroke="#E82324" stroke-width="2" stroke-linecap="round" stroke-linejoin="round"/><path d="M283.706 398.17c8.156 0 14.767-6.611 14.767-14.767 0-8.156-6.611-14.768-14.767-14.768-8.156 0-14.768 6.612-14.768 14.768s6.612 14.767 14.768 14.767zm-2.772-81.363h-25.278v10.643h25.278v-10.643zm-13.629 30.625h-25.278v10.643h25.278v-10.643zm-15.131 30.641h-25.278v10.643h25.278v-10.643z" fill="#fff" stroke="#6D6D7E" stroke-width="2" stroke-linecap="round" stroke-linejoin="round"/><path d="M276.594 382.561l5.297 5.297 8.943-8.927" fill="#fff"/><path d="M276.594 382.561l5.297 5.297 8.943-8.927" stroke="#6D6D7E" stroke-width="2" stroke-linecap="round" stroke-linejoin="round"/><path d="M519.168 394.359h4.121v-33.591h-4.121v33.591zm-20.928-14.552c4.002-1.089 6.796-3.516 8.266-6.652 1.522 2.978 4.37 5.288 8.332 6.364l1.89-3.215c-5.039-1.286-7.873-4.501-8.122-8.096h7.19v-3.333h-7.243v-3.831h-4.107v3.831h-7.164v3.333h7.072c-.236 3.766-3.018 7.086-8.056 8.463l1.942 3.136zm10.313-1.076h-4.107v5.603c-3.241.105-6.325.118-8.936.118l.499 3.373c5.931 0 13.974-.079 21.48-1.47l-.315-3.057c-2.769.42-5.708.682-8.621.853v-5.42zm45.701 4.173c1.299-7.007 1.299-11.678 1.312-15.851v-3.228h-24.183v3.32h20.037c-.013 4.042-.027 8.805-1.339 15.313l4.173.446zm-10.681-7.978h-4.094v11.665h-11.284v3.386h30.56v-3.386h-15.182v-11.665zm41.279-14.158v33.591h4.12v-33.591h-4.12zm-12.938 2.309c-5.275 0-9.224 3.346-9.211 8.11-.013 4.776 3.936 8.109 9.211 8.109 5.314 0 9.198-3.333 9.211-8.109-.013-4.764-3.897-8.11-9.211-8.11zm0 3.583c2.979 0 5.183 1.745 5.183 4.527 0 2.808-2.217 4.527-5.183 4.527-2.939 0-5.144-1.719-5.117-4.527-.027-2.782 2.178-4.527 5.117-4.527zm-10.222 20.666c5.931 0 13.975-.052 21.48-1.496l-.314-2.991c-7.257 1.036-15.615 1.102-21.664 1.089l.498 3.398zm-84.343 31.493v3.333h24.642v-3.333h-4.435v-5.734h4.619v-3.333h-25.01v3.333h4.619v5.734h-4.435zm8.542 0v-5.734h7.532v5.734h-7.532zm19.092 5.826h-30.56v3.281h13.2v3.241h-9.591v10.72h23.251v-10.72h-9.553v-3.241h13.253v-3.281zm-22.884 13.909v-4.173h15.169v4.173h-15.169zm48.955-29.786v17.268h4.081v-17.268h-4.081zm-13.069 10.274c1.509 3.031 4.33 5.419 8.254 6.548l1.981-3.189c-5.183-1.404-8.017-4.933-8.201-8.647h7.046v-3.319h-18.462v3.319h7.204c-.184 3.963-3.057 7.742-8.28 9.277l1.89 3.267c4.133-1.233 7.059-3.897 8.568-7.256zm-.945 17.058h18.148v-8.634H512.92v3.149h18.161v2.494h-18.056v8.896h23.173v-3.202H517.04V436.1zm57.947-14.04c.945-3.451.945-6.272.945-8.936v-2.781H552.68v3.267h19.131c-.013 2.441-.065 4.789-.892 8.043l4.068.407zm-9.92-4.186h-4.081v6.076H549.19v3.346h30.442v-3.346h-14.565v-6.076zm-.84 11.862c-7.23.013-11.862 2.31-11.862 6.286 0 3.91 4.632 6.245 11.862 6.232 7.296.013 11.888-2.322 11.915-6.232-.027-3.976-4.619-6.273-11.915-6.286zm0 9.343c-4.842 0-7.768-1.076-7.742-3.057-.026-2.034 2.9-3.176 7.742-3.189 4.868.013 7.794 1.155 7.807 3.189-.013 1.981-2.939 3.057-7.807 3.057zm43.812-16.993c.839-3.936.839-6.731.839-9.29v-2.611h-23.12v3.333h19c-.013 2.362-.079 5.026-.8 8.568h-21.992v3.307h30.665v-3.307h-4.592zm-18.239 9.645v-3.858h-4.055v14.014h23.028v-14.014h-4.08v3.858H589.8zm0 6.81v-3.622h14.893v3.622H589.8z" fill="#31313F"/><path d="M422.746 478.275c3.282 0 5.507-1.318 5.507-3.406 0-2.113-2.225-3.431-5.507-3.443-3.282.012-5.495 1.33-5.495 3.443 0 2.088 2.213 3.406 5.495 3.406zm0-5.718c2.436 0 4.09.907 4.09 2.312 0 1.392-1.654 2.287-4.09 2.287s-4.09-.895-4.077-2.287c-.013-1.405 1.641-2.312 4.077-2.312zm-7.123 7.197v1.169h6.439v5.507h1.355v-5.507h6.514v-1.169h-14.308zm27.117 6.701h1.368v-15.651h-1.368v15.651zm-9.211-8.64h5.83v-5.557h-7.272v1.144h5.88v3.282h-5.855v5.979h1.305c2.698 0 5.072-.112 7.944-.572l-.137-1.156c-2.797.454-5.103.566-7.695.572v-3.692zm16.539-2.275v-4.164H448.7v5.283h10.691v-1.119h-9.323zm-3.332 4.363h14.308v-1.118h-14.308v1.118zm1.865 1.592v4.549h10.889v-1.143h-9.522v-3.406h-1.367zm30.454-10.703h-1.38v11.461h1.38v-5.308h2.349v-1.181h-2.349v-4.972zm-7.558 1.342h-4.164v1.156h2.834c-.193 2.393-1.162 4.158-3.269 5.694l.932.895c2.66-2.052 3.655-4.587 3.667-7.745zm.771 8.466c2.809-2.325 3.63-5.221 3.642-8.466h-3.804v1.156h2.474c-.174 2.542-1.057 4.674-3.257 6.439l.945.871zm-3.071.721v4.761h10.48v-1.144h-9.112v-3.617h-1.368zm25.415-10.529h-1.38v11.461h1.38v-5.308h2.349v-1.181h-2.349v-4.972zm-7.558 1.342h-4.165v1.156h2.835c-.193 2.393-1.163 4.158-3.27 5.694l.933.895c2.66-2.052 3.654-4.587 3.667-7.745zm.77 8.466c2.81-2.325 3.63-5.221 3.643-8.466h-3.804v1.156h2.474c-.175 2.542-1.057 4.674-3.257 6.439l.944.871zm-3.07.721v4.761h10.479v-1.144h-9.112v-3.617h-1.367zm25.29-4.078v-6.439h-1.367v15.626h1.367v-8.031h2.61v-1.156h-2.61zm-8.167-6.253v2.325h-4.015v1.144h9.298v-1.144h-3.903v-2.325h-1.38zm.708 4.761c-2.225 0-3.841 1.48-3.828 3.593-.013 2.113 1.603 3.58 3.828 3.58 2.213 0 3.817-1.467 3.829-3.58-.012-2.113-1.616-3.593-3.829-3.593zm0 6.005c-1.454.012-2.523-.995-2.511-2.412-.012-1.417 1.057-2.436 2.511-2.436 1.442 0 2.499 1.019 2.511 2.436-.012 1.417-1.069 2.424-2.511 2.412zm22.071-7.819c-.013 1.877-.013 4.064-.597 7.048l1.392.161c.572-3.145.572-5.283.585-7.209v-1.554h-11.014v1.143h9.634v.411zm-4.202 3.542h-1.367v5.582h-5.582v1.156h14.246v-1.156h-7.297v-5.582zm25.221-.397v-6.278h-1.38v15.626h1.38v-8.167h2.61v-1.181h-2.61zm-10.019.658h5.593v-1.118h-5.593v-3.245h5.942v-1.156h-7.335v10.442h1.231c2.958-.012 5.01-.099 7.446-.51l-.149-1.143c-2.343.404-4.314.503-7.135.509v-3.779zm18.664-5.357v-1.728h-1.368v1.728h-3.803v1.131h8.85v-1.131h-3.679zm6.389 2.076h-2.722v1.143h2.722v1.902h-2.734v1.144h2.734v1.392h1.38v-9.236h-1.38v3.655zm-3.518 2.647c-.012-1.703-1.479-2.821-3.567-2.821-2.114 0-3.555 1.118-3.543 2.821-.012 1.691 1.429 2.797 3.543 2.797 2.088 0 3.555-1.106 3.567-2.797zm-5.817 0c-.013-1.056.882-1.752 2.25-1.752 1.342 0 2.262.696 2.275 1.752-.013 1.045-.933 1.753-2.275 1.753-1.368 0-2.263-.708-2.25-1.753zm1.914 5.234v-1.641h-1.367v5.519h10.168v-5.519h-1.367v1.641h-7.434zm0 2.772v-1.691h7.434v1.691h-7.434zm23.5-7.869v-6.439h-1.367v15.626h1.367v-8.031h2.611v-1.156h-2.611zm-8.167-6.253v2.325h-4.015v1.144h9.298v-1.144h-3.903v-2.325h-1.38zm.709 4.761c-2.226 0-3.842 1.48-3.829 3.593-.013 2.113 1.603 3.58 3.829 3.58 2.212 0 3.816-1.467 3.828-3.58-.012-2.113-1.616-3.593-3.828-3.593zm0 6.005c-1.455.012-2.524-.995-2.511-2.412-.013-1.417 1.056-2.436 2.511-2.436 1.442 0 2.498 1.019 2.511 2.436-.013 1.417-1.069 2.424-2.511 2.412zm22.418 4.674h1.38v-15.626h-1.38v15.626zm-5.905-12.866h3.717v-1.156h-8.801v1.156h3.692v2.038c-.012 2.698-1.964 5.656-4.202 6.725l.821 1.094c1.784-.895 3.362-2.884 4.096-5.171.733 2.157 2.306 3.953 4.133 4.786l.771-1.094c-2.3-.994-4.227-3.692-4.227-6.34v-2.038zm26.7-2.76h-1.38v7.807h1.38v-3.133h2.35v-1.156h-2.35v-3.518zm-3.804 4.5c0-2.113-1.715-3.605-4.052-3.605-2.337 0-4.077 1.492-4.065 3.605-.012 2.126 1.728 3.605 4.065 3.617 2.337-.012 4.052-1.491 4.052-3.617zm-6.762 0c-.012-1.417 1.169-2.449 2.71-2.449s2.71 1.032 2.71 2.449c0 1.43-1.169 2.474-2.71 2.474s-2.722-1.044-2.71-2.474zm7.521 3.692v1.38h-3.294v1.081h7.906v-1.081h-3.257v-1.38h-1.355zm-6.166 1.305h-1.343v5.706h.746c1.02 0 2.499-.062 4.028-.572l-.224-1.106c-1.1.373-2.306.497-3.207.534v-4.562zm6.825 1.678c-1.728 0-2.922.858-2.909 2.213-.013 1.355 1.181 2.2 2.909 2.2 1.703 0 2.908-.845 2.921-2.2-.013-1.355-1.218-2.213-2.921-2.213zm0 3.419c-.982 0-1.679-.472-1.679-1.206 0-.721.697-1.206 1.679-1.218.969.012 1.665.497 1.665 1.218 0 .734-.696 1.206-1.665 1.206zm12.852-11.915c.989 1.74 3.369 2.977 5.787 3.338l.51-1.094c-2.747-.361-5.594-2.089-5.594-4.016v-.733h-1.417v.733c0 1.989-2.822 3.63-5.607 4.016l.522 1.094c2.412-.361 4.805-1.579 5.799-3.338zm-7.129 5.6h14.246v-1.156H615.88v1.156zm3.183 2.921v-1.827h-1.368v6.041h10.567v-6.041h-1.393v1.827h-7.806zm0 3.096v-2.002h7.806v2.002h-7.806zm23.885 1.33h1.367v-15.626h-1.367v15.626zm-9.137-14.085h-1.355v10.057h1.268c2.499 0 4.973-.199 7.745-.771l-.187-1.181c-2.629.554-5.084.74-7.471.746v-8.851zm25.278 4.637v-6.178h-1.38v15.651h1.38v-8.317h2.61v-1.156h-2.61zm-10.032-3.518h5.917v-1.131h-7.297v10.206h1.231c2.971 0 5.022-.087 7.471-.522l-.174-1.194c-2.318.429-4.32.541-7.148.547v-7.906zm15.147 11.636c.621 0 1.131-.51 1.131-1.132 0-.621-.51-1.131-1.131-1.131-.622 0-1.144.51-1.132 1.131-.012.622.51 1.132 1.132 1.132zm-205.81 21.175c3.282 0 5.507-1.318 5.507-3.406 0-2.113-2.225-3.431-5.507-3.443-3.281.012-5.494 1.33-5.494 3.443 0 2.088 2.213 3.406 5.494 3.406zm0-5.718c2.437 0 4.09.907 4.09 2.312 0 1.392-1.653 2.287-4.09 2.287-2.436 0-4.089-.895-4.077-2.287-.012-1.405 1.641-2.312 4.077-2.312zm-7.123 7.197v1.169h6.44v5.507h1.355v-5.507h6.513v-1.169h-14.308zm27.118 6.701h1.367v-15.651h-1.367v15.651zm-9.211-8.64h5.83v-5.557h-7.272v1.144h5.879v3.282h-5.855v5.979h1.306c2.697 0 5.072-.112 7.943-.572l-.137-1.156c-2.797.454-5.103.566-7.694.572v-3.692zm16.538-2.275v-4.164h-1.367v5.283h10.69v-1.119h-9.323zm-3.331 4.363h14.308v-1.118h-14.308v1.118zm1.864 1.592v4.549h10.89v-1.143h-9.522v-3.406h-1.368zm25.333-3.22c3.282 0 5.507-1.318 5.507-3.406 0-2.113-2.225-3.431-5.507-3.443-3.282.012-5.495 1.33-5.495 3.443 0 2.088 2.213 3.406 5.495 3.406zm0-5.718c2.436 0 4.09.907 4.09 2.312 0 1.392-1.654 2.287-4.09 2.287-2.437 0-4.09-.895-4.077-2.287-.013-1.405 1.64-2.312 4.077-2.312zm-7.123 7.197v1.169h6.439v5.507h1.355v-5.507h6.514v-1.169h-14.308zm27.117 6.701h1.368v-15.651h-1.368v15.651zm-9.211-8.64h5.83v-5.557h-7.272v1.144h5.88v3.282h-5.855v5.979h1.305c2.698 0 5.072-.112 7.944-.572l-.137-1.156c-2.797.454-5.103.566-7.695.572v-3.692zm24.805-.733h-3.431v1.143h3.431v8.23h1.38v-15.651h-1.38v6.278zm-6.178-2.437h3.543v-1.119h-3.518v-2.436h-1.38v2.436h-3.592v1.119h3.592v1.243c0 2.698-1.715 5.37-4.003 6.439l.784 1.069c1.783-.857 3.238-2.678 3.915-4.854.696 2.064 2.17 3.767 3.953 4.581l.784-1.081c-2.313-1.032-4.078-3.568-4.078-6.154v-1.243zm21.735-.323h-2.983v1.144h2.983v4.524h1.38v-9.174h-1.38v3.506zm-2.673 3.418c-2.355.38-4.295.467-6.862.46v-2.274h5.557V499.6h-6.961v1.143h5.619v2.113h-5.582v4.488h1.181c2.697.012 4.711-.062 7.16-.448l-.112-1.156zm4.053 8.478v-5.357h-10.281v5.357h10.281zm-1.368-4.276v3.145h-7.545v-3.145h7.545zm20.709-11.15h-1.38v11.461h1.38v-5.308h2.349v-1.181h-2.349v-4.972zm-7.558 1.342h-4.165v1.156h2.834c-.192 2.393-1.162 4.158-3.269 5.694l.932.895c2.661-2.052 3.655-4.587 3.668-7.745zm.77 8.466c2.81-2.325 3.63-5.221 3.643-8.466h-3.804v1.156h2.473c-.174 2.542-1.056 4.674-3.256 6.439l.944.871zm-3.07.721v4.761h10.479v-1.144h-9.112v-3.617h-1.367zm25.414-10.529h-1.38v11.461h1.38v-5.308h2.35v-1.181h-2.35v-4.972zm-7.558 1.342h-4.164v1.156h2.834c-.193 2.393-1.162 4.158-3.269 5.694l.932.895c2.66-2.052 3.655-4.587 3.667-7.745zm.771 8.466c2.809-2.325 3.63-5.221 3.642-8.466h-3.804v1.156h2.474c-.174 2.542-1.057 4.674-3.257 6.439l.945.871zm-3.071.721v4.761h10.48v-1.144h-9.112v-3.617h-1.368zm25.291-4.078v-6.439h-1.368v15.626h1.368v-8.031h2.61v-1.156h-2.61zm-8.168-6.253v2.325h-4.015v1.144h9.299v-1.144h-3.904v-2.325h-1.38zm.709 4.761c-2.225 0-3.841 1.48-3.829 3.593-.012 2.113 1.604 3.58 3.829 3.58 2.213 0 3.816-1.467 3.829-3.58-.013-2.113-1.616-3.593-3.829-3.593zm0 6.005c-1.454.012-2.523-.995-2.511-2.412-.012-1.417 1.057-2.436 2.511-2.436 1.442 0 2.499 1.019 2.511 2.436-.012 1.417-1.069 2.424-2.511 2.412zm22.07-7.819c-.012 1.877-.012 4.064-.596 7.048l1.392.161c.572-3.145.572-5.283.584-7.209v-1.554h-11.014v1.143h9.634v.411zm-4.201 3.542h-1.368v5.582h-5.581v1.156h14.246v-1.156h-7.297v-5.582zm-185.075 27.603v-6.278h-1.38v15.626h1.38v-8.167h2.61v-1.181h-2.61zm-10.02.658h5.594v-1.118h-5.594v-3.245h5.942v-1.156h-7.334v10.442h1.231c2.958-.012 5.009-.099 7.446-.51l-.149-1.143c-2.344.404-4.314.503-7.136.509v-3.779zm18.665-5.357v-1.728h-1.368v1.728h-3.804v1.131h8.851v-1.131h-3.679zm6.389 2.076h-2.722v1.143h2.722v1.902h-2.735v1.144h2.735v1.392h1.38v-9.236h-1.38v3.655zm-3.518 2.647c-.012-1.703-1.479-2.821-3.568-2.821-2.113 0-3.555 1.118-3.542 2.821-.013 1.691 1.429 2.797 3.542 2.797 2.089 0 3.556-1.106 3.568-2.797zm-5.818 0c-.012-1.056.883-1.752 2.25-1.752 1.343 0 2.263.696 2.275 1.752-.012 1.045-.932 1.753-2.275 1.753-1.367 0-2.262-.708-2.25-1.753zm1.915 5.234v-1.641h-1.368v5.519h10.169v-5.519h-1.367v1.641h-7.434zm0 2.772v-1.691h7.434v1.691h-7.434zm23.5-7.869v-6.439h-1.368v15.626h1.368v-8.031h2.61v-1.156h-2.61zm-8.167-6.253v2.325h-4.016v1.144h9.299v-1.144h-3.903v-2.325h-1.38zm.708 4.761c-2.225 0-3.841 1.48-3.828 3.593-.013 2.113 1.603 3.58 3.828 3.58 2.213 0 3.817-1.467 3.829-3.58-.012-2.113-1.616-3.593-3.829-3.593zm0 6.005c-1.454.012-2.523-.995-2.511-2.412-.012-1.417 1.057-2.436 2.511-2.436 1.442 0 2.499 1.019 2.511 2.436-.012 1.417-1.069 2.424-2.511 2.412zm22.419 4.674h1.38v-15.626h-1.38v15.626zm-5.905-12.866h3.717v-1.156h-8.801v1.156h3.692v2.038c-.013 2.698-1.964 5.656-4.202 6.725l.821 1.094c1.783-.895 3.362-2.884 4.096-5.171.733 2.157 2.306 3.953 4.133 4.786l.771-1.094c-2.3-.994-4.227-3.692-4.227-6.34v-2.038zm26.7-2.76h-1.38v7.807h1.38v-3.133h2.349v-1.156h-2.349v-3.518zm-3.804 4.5c0-2.113-1.715-3.605-4.052-3.605-2.337 0-4.078 1.492-4.065 3.605-.013 2.126 1.728 3.605 4.065 3.617 2.337-.012 4.052-1.491 4.052-3.617zm-6.762 0c-.013-1.417 1.168-2.449 2.71-2.449 1.541 0 2.71 1.032 2.71 2.449 0 1.43-1.169 2.474-2.71 2.474-1.542 0-2.723-1.044-2.71-2.474zm7.52 3.692v1.38H498.3v1.081h7.906v-1.081h-3.257v-1.38h-1.355zm-6.165 1.305h-1.343v5.706h.746c1.019 0 2.499-.062 4.028-.572l-.224-1.106c-1.1.373-2.306.497-3.207.534v-4.562zm6.824 1.678c-1.728 0-2.921.858-2.909 2.213-.012 1.355 1.181 2.2 2.909 2.2 1.703 0 2.909-.845 2.922-2.2-.013-1.355-1.219-2.213-2.922-2.213zm0 3.419c-.982 0-1.678-.472-1.678-1.206 0-.721.696-1.206 1.678-1.218.97.012 1.666.497 1.666 1.218 0 .734-.696 1.206-1.666 1.206zm9.031-9.858v-4.164h-1.368v5.283h10.691v-1.119h-9.323zm-3.332 4.363h14.308v-1.118h-14.308v1.118zm1.865 1.592v4.549h10.889v-1.143h-9.522v-3.406h-1.367zm29.385-7.558c-.013 1.877-.013 4.064-.597 7.048l1.392.161c.572-3.145.572-5.283.585-7.209v-1.554h-11.014v1.143h9.634v.411zM535 533.479h-1.367v5.582h-5.582v1.156h14.246v-1.156H535v-5.582zm20.566-2.734h-2.138v-3.63h-1.317v8.813h1.317v-4.027h2.138v4.127h1.306v-9.212h-1.306v3.929zm-5.109-2.785h-6.128v1.144h4.717c-.267 2.623-2.107 4.736-5.351 6.054l.684 1.044c3.965-1.691 6.078-4.513 6.078-8.242zm5.06 9.92v4.55h1.355v-5.681H546.33v1.131h9.187zm10.758-5.37c3.481-.013 5.519-.97 5.519-2.735 0-1.74-2.038-2.698-5.519-2.698-3.481 0-5.532.958-5.532 2.698 0 1.765 2.051 2.722 5.532 2.735zm0-4.388c2.598 0 4.115.621 4.115 1.653 0 1.081-1.517 1.678-4.115 1.678-2.586 0-4.102-.597-4.09-1.678-.012-1.032 1.504-1.653 4.09-1.653zm-7.11 6.563h14.245v-1.119h-14.245v1.119zm12.406 4.848v-3.493h-10.679v1.057h9.324v1.417h-9.286v3.742h11.113v-1.094h-9.758v-1.629h9.286zm8.886-7.123c2.61-.255 5.072-1.268 5.911-2.915.839 1.647 3.288 2.66 5.898 2.915l.46-1.044c-2.722-.217-5.32-1.38-5.463-2.983h4.941v-1.094h-11.66v1.094h4.916c-.155 1.603-2.772 2.766-5.463 2.983l.46 1.044zm6.576-.957h-1.355v1.852h-6.464v1.132h14.308v-1.132h-6.489v-1.852zm-1.355 3.593v1.479h-5.109v1.081h11.598v-1.081h-5.122v-1.479h-1.367zm.671 3.331c-3.033.013-4.711.709-4.711 2.064 0 1.367 1.678 2.076 4.711 2.076 3.021 0 4.736-.709 4.736-2.076 0-1.355-1.715-2.051-4.736-2.064zm0 3.17c-2.101.012-3.319-.385-3.306-1.106-.013-.721 1.205-1.082 3.306-1.094 2.126.012 3.319.373 3.332 1.094-.013.721-1.206 1.118-3.332 1.106zm20.542-8.503v-6.24h-1.38v15.626h1.38v-8.205h2.61v-1.181h-2.61zm-7.919-5.034c-2.312.012-3.94 2.125-3.928 5.445-.012 3.331 1.616 5.444 3.928 5.444s3.941-2.113 3.953-5.444c-.012-3.32-1.641-5.433-3.953-5.445zm0 9.659c-1.541 0-2.623-1.666-2.623-4.214 0-2.536 1.082-4.202 2.623-4.215 1.566.013 2.623 1.679 2.623 4.215 0 2.548-1.057 4.214-2.623 4.214zm16.763-9.249v-1.765h-1.368v1.765h-3.978v1.131h9.311v-1.131h-3.965zm6.837 2.387v-4.003h-1.38v9.075h1.38v-3.904h2.349v-1.168h-2.349zm-7.521 4.947c2.237.013 3.742-1.069 3.754-2.735-.012-1.665-1.517-2.734-3.754-2.734-2.275 0-3.779 1.069-3.767 2.734-.012 1.666 1.492 2.748 3.767 2.735zm-2.449-2.735c-.012-1.006.97-1.69 2.449-1.678 1.454-.012 2.436.672 2.449 1.678-.013 1.02-.995 1.691-2.449 1.691-1.479 0-2.461-.671-2.449-1.691zm1.454 5.221v-1.678h-1.367v5.656h9.883v-5.656h-1.38v1.678h-7.136zm0 2.86v-1.766h7.136v1.766h-7.136zm23.364 1.33h1.367v-15.626h-1.367v15.626zm-9.137-14.085h-1.355v10.057h1.268c2.499 0 4.972-.199 7.744-.771l-.186-1.181c-2.629.554-5.084.74-7.471.746v-8.851zm25.278 4.637v-6.178h-1.38v15.651h1.38v-8.317h2.61v-1.156h-2.61zm-10.032-3.518h5.917v-1.131h-7.297v10.206h1.231c2.971 0 5.022-.087 7.471-.522l-.174-1.194c-2.319.429-4.32.541-7.148.547v-7.906zm15.146 11.636c.622 0 1.131-.51 1.131-1.132 0-.621-.509-1.131-1.131-1.131-.621 0-1.143.51-1.131 1.131-.012.622.51 1.132 1.131 1.132z" fill="#6D6D7E"/></svg>